<?xml version="1.0" encoding="UTF-8" standalone="no"?>
<!-- Created with Inkscape (http://www.inkscape.org/) -->

<svg
   xmlns:dc="http://purl.org/dc/elements/1.1/"
   xmlns:cc="http://creativecommons.org/ns#"
   xmlns:rdf="http://www.w3.org/1999/02/22-rdf-syntax-ns#"
   xmlns:svg="http://www.w3.org/2000/svg"
   xmlns="http://www.w3.org/2000/svg"
   xmlns:xlink="http://www.w3.org/1999/xlink"
   xmlns:sodipodi="http://sodipodi.sourceforge.net/DTD/sodipodi-0.dtd"
   xmlns:inkscape="http://www.inkscape.org/namespaces/inkscape"
   width="70"
   height="100"
   id="svg3054"
   version="1.1"
   inkscape:version="0.48.3.1 r9886"
   sodipodi:docname="logo.svg">
  <defs
     id="defs3056">
    <linearGradient
       gradientUnits="userSpaceOnUse"
       y2="301.72379"
       x2="322.39264"
       y1="307.13892"
       x1="309.87598"
       id="linearGradient6929"
       xlink:href="#linearGradient6923"
       inkscape:collect="always" />
    <filter
       height="1.1362907"
       y="-0.068145372"
       width="1.5956492"
       x="-0.29782461"
       id="filter6850"
       inkscape:collect="always">
      <feGaussianBlur
         id="feGaussianBlur6852"
         stdDeviation="0.20053196"
         inkscape:collect="always" />
    </filter>
    <filter
       height="1.1492482"
       y="-0.074624114"
       width="1.652279"
       x="-0.3261395"
       id="filter6846"
       inkscape:collect="always">
      <feGaussianBlur
         id="feGaussianBlur6848"
         stdDeviation="0.219597"
         inkscape:collect="always" />
    </filter>
    <filter
       height="1.4455473"
       y="-0.22277364"
       width="1.0670765"
       x="-0.033538259"
       id="filter5766"
       inkscape:collect="always">
      <feGaussianBlur
         id="feGaussianBlur5768"
         stdDeviation="0.050062438"
         inkscape:collect="always" />
    </filter>
    <filter
       height="1.0189185"
       y="-0.0094592636"
       width="1.7318403"
       x="-0.36592016"
       id="filter5723"
       inkscape:collect="always">
      <feGaussianBlur
         id="feGaussianBlur5725"
         stdDeviation="0.065258729"
         inkscape:collect="always" />
    </filter>
    <filter
       height="1.0206571"
       y="-0.010328547"
       width="1.3559311"
       x="-0.17796556"
       id="filter5687"
       inkscape:collect="always">
      <feGaussianBlur
         id="feGaussianBlur5689"
         stdDeviation="0.069611027"
         inkscape:collect="always" />
    </filter>
    <filter
       id="filter5489"
       inkscape:collect="always">
      <feGaussianBlur
         id="feGaussianBlur5491"
         stdDeviation="0.078912291"
         inkscape:collect="always" />
    </filter>
    <linearGradient
       id="linearGradient6923">
      <stop
         id="stop6925"
         offset="0"
         style="stop-color:#006600;stop-opacity:1;" />
      <stop
         style="stop-color:#003300;stop-opacity:0.49803922;"
         offset="1"
         id="stop6931" />
    </linearGradient>
  </defs>
  <sodipodi:namedview
     id="base"
     pagecolor="#ffffff"
     bordercolor="#666666"
     borderopacity="1.0"
     inkscape:pageopacity="0.0"
     inkscape:pageshadow="2"
     inkscape:zoom="3.959798"
     inkscape:cx="31.020697"
     inkscape:cy="32.609993"
     inkscape:document-units="px"
     inkscape:current-layer="layer1"
     showgrid="false"
     inkscape:window-width="1366"
     inkscape:window-height="716"
     inkscape:window-x="0"
     inkscape:window-y="24"
     inkscape:window-maximized="1" />
  <metadata
     id="metadata3059">
    <rdf:RDF>
      <cc:Work
         rdf:about="">
        <dc:format>image/svg+xml</dc:format>
        <dc:type
           rdf:resource="http://purl.org/dc/dcmitype/StillImage" />
        <dc:title />
      </cc:Work>
    </rdf:RDF>
  </metadata>
  <g
     inkscape:label="Layer 1"
     inkscape:groupmode="layer"
     id="layer1"
     transform="translate(0,-952.35986)">
    <text
       xml:space="preserve"
       style="font-size:24px;font-style:normal;font-weight:normal;line-height:125%;letter-spacing:0px;word-spacing:0px;fill:#000000;fill-opacity:1;stroke:none;font-family:Sans"
       x="-38.385796"
       y="59.593899"
       id="text2993"
       sodipodi:linespacing="125%"
       transform="translate(0,952.35986)"><tspan
         sodipodi:role="line"
         id="tspan2995"
         x="-38.385796"
         y="59.593899" /></text>
    <g
       id="g3110"
       transform="matrix(0.53370127,0,0,0.53370127,-875.49206,966.45028)">
      <g
         id="g3040"
         transform="matrix(2.1134462,0,0,2.1134462,-522.89427,-160.95381)">
        <linearGradient
           gradientTransform="matrix(1,0,0,-1,-233.5996,-223.9004)"
           gradientUnits="userSpaceOnUse"
           id="SVGID_2_"
           x1="304.7861"
           x2="304.7861"
           y1="-265.05029"
           y2="-326.10059">
          <stop
             offset="0"
             stop-color="#3b3838"
             id="stop3043" />
          <stop
             offset="0.1818"
             stop-color="#302e2e"
             id="stop3045" />
          <stop
             offset="1"
             stop-color="#000000"
             id="stop3047" />
        </linearGradient>
        <linearGradient
           gradientTransform="matrix(1,0,0,-1,-233.5996,-223.9004)"
           gradientUnits="userSpaceOnUse"
           id="SVGID_3_"
           x1="299.2363"
           x2="299.2363"
           y1="-259.5015"
           y2="-320.5488">
          <stop
             offset="0"
             stop-color="#3b3838"
             id="stop3052" />
          <stop
             offset="0.1818"
             stop-color="#302e2e"
             id="stop3054" />
          <stop
             offset="1"
             stop-color="#000000"
             id="stop3056" />
        </linearGradient>
        <linearGradient
           gradientTransform="matrix(1,0,0,-1,-233.5996,-223.9004)"
           gradientUnits="userSpaceOnUse"
           id="SVGID_4_"
           x1="293.6875"
           x2="293.6875"
           y1="-253.9502"
           y2="-315">
          <stop
             offset="0"
             stop-color="#3b3838"
             id="stop3061" />
          <stop
             offset="0.1818"
             stop-color="#302e2e"
             id="stop3063" />
          <stop
             offset="1"
             stop-color="#000000"
             id="stop3065" />
        </linearGradient>
      </g>
    </g>
    <g
       id="g8260"
       transform="matrix(0.21401455,0,0,0.21401455,85.51954,809.25938)">
      <path
         inkscape:export-ydpi="60.703259"
         inkscape:export-xdpi="60.703259"
         inkscape:export-filename="/home/aank/data.desain/greenbox/maskot_bg/g3581.png"
         transform="matrix(1.0283283,0,0,0.63567758,-5.2971982,629.41428)"
         d="m -128.1407,759.58862 c 0,8.55718 -31.49756,15.49414 -70.35176,15.49414 -38.85421,0 -70.35176,-6.93696 -70.35176,-15.49414 0,-8.55717 31.49755,-15.49413 70.35176,-15.49413 38.8542,0 70.35176,6.93696 70.35176,15.49413 z"
         sodipodi:ry="15.494138"
         sodipodi:rx="70.351761"
         sodipodi:cy="759.58862"
         sodipodi:cx="-198.49246"
         id="path8256"
         style="fill:#cccccc;fill-opacity:1;stroke:none"
         sodipodi:type="arc" />
      <g
         inkscape:export-ydpi="60.703259"
         inkscape:export-xdpi="60.703259"
         inkscape:export-filename="/home/aank/data.desain/greenbox/maskot_bg/g3581.png"
         transform="matrix(1.0295309,0,0,1.0295309,-26.669594,-19.221665)"
         id="g8116">
        <path
           inkscape:export-ydpi="72"
           inkscape:export-xdpi="72"
           inkscape:export-filename="/home/aank/data.desain/greenbox/maskot_bg/g3581.png"
           style="fill:#000000;fill-opacity:1;stroke:none"
           d="m -215.15612,1103.345 c -0.99336,-0.2359 -2.11553,-0.9275 -2.76465,-1.7035 -1.12296,-1.3427 -0.88469,-2.9712 1.5286,-10.4474 3.7541,-11.6297 5.4544,-19.4747 5.80873,-26.8008 0.20503,-4.2375 -0.14507,-7.4587 -1.29404,-11.9083 l -0.8769,-3.3961 c -2.74592,-1.1662 -11.44636,-1.5556 -16.81519,1.469 -3.97129,-4.8187 -3.29119,-3.3408 -10.92603,-14.3226 4.13449,-3.2853 8.93059,-6.3287 25.21019,-8.5163 0.0779,-0.078 -0.002,-0.9506 -0.1796,-1.9392 l -0.32122,-1.7975 -2.03115,0.2531 c -2.47767,0.3086 -14.0657,0.3825 -15.40195,0.098 l -1.55756,-0.2711 c 1.68447,-7.0587 1.85153,-11.4885 1.99314,-18.1344 l 2.63985,-9e-4 c 7.23175,-0.6203 20.7672,-1.2461 22.16176,-9.89058 21.38682,2.1832 34.6481,-0.4948 53.66719,-2.736 0.002,3.5978 5.50329,8.08798 9.70791,8.93498 6.28781,1.9282 13.32915,1.6952 23.41061,-1.5344 2.03432,3.2726 4.89566,13.187 6.99107,19.1283 -9.05073,2.2977 -15.51122,4.2475 -28.10903,4.3759 0.12269,0.8831 0.20835,1.8916 0.20724,3.2325 8.16515,1.7378 12.4286,2.9833 17.17571,5.2185 -3.5383,4.6552 -5.22912,10.7779 -7.86294,15.658 -3.55848,-0.6348 -6.75488,-1.6745 -10.63129,-2.1402 0,0.4193 -1.7226,7.6835 -2.50665,10.5706 -2.68931,9.9024 -3.07209,16.6179 -1.33709,23.4575 1.09019,4.2977 4.56381,10.2447 7.02543,12.0278 0.59442,0.4306 2.49099,1.3315 4.21459,2.002 1.72359,0.6705 3.42873,1.4511 3.78924,1.7347 1.2603,0.9913 1.52518,3.3514 0.48075,4.2831 -0.79536,0.7096 -2.73731,1.0287 -6.25991,1.0287 -9.85181,0 -21.51064,-3.2623 -25.73302,-7.8294 -0.65148,-0.7047 0.13208,-1.0377 0.1249,-5.642 -0.005,-4.947 -0.26914,-6.6539 -1.59478,-10.4037 -1.74151,-4.9258 -4.90522,-9.0201 -8.3559,-10.8137 -1.4911,-0.775 -1.88292,-0.8616 -3.90141,-0.8619 -1.94587,-3e-4 -2.43106,0.098 -3.6536,0.7384 -1.73272,0.9081 -3.47408,2.4761 -4.92092,4.431 -1.12161,1.5156 -1.6527,2.6348 -6.68707,14.0936 -1.59469,3.6297 -3.45659,7.8468 -4.13752,9.3714 l -1.238,2.7717 -2.81459,1.9642 c -3.32216,2.3185 -6.19989,3.8368 -8.00572,4.2241 -1.47026,0.3154 -4.93523,0.3282 -6.21948,0.022 l 0,0 z"
           id="path5622"
           inkscape:connector-curvature="0"
           sodipodi:nodetypes="ccscsccccccsccccccccccccccsscssssscscccssscssccc" />
        <path
           inkscape:export-ydpi="72"
           inkscape:export-xdpi="72"
           inkscape:export-filename="/home/aank/data.desain/greenbox/maskot_bg/g3581.png"
           style="fill:#338000;fill-opacity:1;stroke:none"
           d="m -74.787918,940.12962 c 8.85272,-20.3158 7.6089,-75.6271 -3.29652,-119.76682 -9.58726,-38.80447 -53.864902,-51.22628 -69.019372,-51.2134 -39.94929,0.034 -79.52431,3.4194 -118.38287,13.22058 -18.46416,4.65715 -62.36588,31.75775 -62.56698,66.55587 -0.322,55.70177 16.70495,107.14127 24.46955,117.90507 39.80575,56.32668 196.93745,40.95118 228.796192,-26.7013 z"
           id="path5624"
           inkscape:connector-curvature="0"
           sodipodi:nodetypes="csssscc" />
        <path
           inkscape:export-ydpi="72"
           inkscape:export-xdpi="72"
           inkscape:export-filename="/home/aank/data.desain/greenbox/maskot_bg/g3581.png"
           sodipodi:nodetypes="csssscc"
           inkscape:connector-curvature="0"
           id="path5626"
           d="m -100.30077,931.97482 c 4.386962,-14.1884 -0.39406,-58.7563 -9.14977,-93.14617 -7.54293,-29.62637 -36.89748,-31.76684 -48.62459,-30.21396 l -92.17877,12.20616 c -14.73579,1.95132 -37.75397,11.95107 -39.08207,38.52225 -0.76725,15.35012 0.21967,75.76812 19.20688,100.27892 28.49201,35.4506 157.55247,21.5608 169.82832,-27.6472 z"
           style="fill:#e3f4d7;fill-opacity:1;stroke:none" />
        <path
           inkscape:export-ydpi="72"
           inkscape:export-xdpi="72"
           inkscape:export-filename="/home/aank/data.desain/greenbox/maskot_bg/g3581.png"
           sodipodi:type="arc"
           style="fill:#5aa02c;fill-opacity:1;stroke:none"
           id="path5628"
           sodipodi:cx="285"
           sodipodi:cy="273.38019"
           sodipodi:rx="22.142857"
           sodipodi:ry="44.285713"
           d="m 307.14286,273.38019 c 0,24.45832 -9.9137,44.28571 -22.14286,44.28571 -12.22916,0 -22.14286,-19.82739 -22.14286,-44.28571 0,-24.45833 9.9137,-44.28572 22.14286,-44.28572 12.22916,0 22.14286,19.82739 22.14286,44.28572 z"
           transform="matrix(1.1922821,-0.1404514,0.09821119,0.83370817,-514.61542,686.27911)" />
        <g
           inkscape:export-ydpi="72"
           inkscape:export-xdpi="72"
           inkscape:export-filename="/home/aank/data.desain/greenbox/maskot_bg/g3581.png"
           transform="matrix(2.0753491,-0.39099776,0.39099776,2.0753491,-1080.3943,-117.42721)"
           id="g5630">
          <path
             style="fill:#17280b;fill-opacity:1;stroke:none"
             d="m 355.27756,513.36129 c 8.94124,-0.64088 9.98214,-4.9385 11.71242,-14.5743 0.0128,-0.0112 0.32165,0.16634 0.68628,0.39445 2.90988,1.82053 5.50083,3.89083 7.77346,6.21134 0.71667,0.73177 0.7286,0.74775 0.71423,0.9559 -1.47752,10.53018 -2.26994,13.49357 -9.50268,17.72988 -2.47786,-5.27105 -7.04432,-8.65083 -11.38371,-10.71727 z"
             id="path5632"
             inkscape:connector-curvature="0"
             sodipodi:nodetypes="ccssccc" />
          <path
             sodipodi:type="arc"
             style="fill:#225500;fill-opacity:1;stroke:none"
             id="path5634"
             sodipodi:cx="459.2406"
             sodipodi:cy="188.88939"
             sodipodi:rx="11.995562"
             sodipodi:ry="10.480332"
             d="m 471.23616,188.88939 c 0,5.78813 -5.37059,10.48033 -11.99556,10.48033 -6.62497,0 -11.99556,-4.6922 -11.99556,-10.48033 0,-5.78813 5.37059,-10.48033 11.99556,-10.48033 6.62497,0 11.99556,4.6922 11.99556,10.48033 z"
             transform="matrix(0.27239524,0.15699325,-5.6537035e-5,0.32756206,245.42266,374.47472)" />
          <rect
             transform="matrix(0.99762333,0.06890347,-0.06890347,0.99762333,0,0)"
             style="fill:#447821;fill-opacity:1;stroke:none"
             id="rect5636"
             width="2.8533792"
             height="23.204927"
             x="403.2334"
             y="423.48129"
             ry="1.6752219" />
          <rect
             transform="matrix(0.99762333,0.06890347,-0.06890347,0.99762333,0,0)"
             ry="0"
             y="445.34653"
             x="402.69229"
             height="18.045765"
             width="3.9356196"
             id="rect5638"
             style="fill:#2d5016;fill-opacity:1;stroke:none" />
          <path
             style="fill:#17280b;fill-opacity:1;stroke:none"
             d="m 368.00454,506.59945 1.22272,-16.64525 5.23502,0.36157 -1.22555,19.8595 c 0.0273,2.67883 -5.00725,1.04188 -5.23217,-3.57582 z"
             id="path5640"
             inkscape:connector-curvature="0"
             sodipodi:nodetypes="ccccc" />
        </g>
        <path
           inkscape:export-ydpi="72"
           inkscape:export-xdpi="72"
           inkscape:export-filename="/home/aank/data.desain/greenbox/maskot_bg/g3581.png"
           transform="matrix(0.864679,-0.1018596,0.06909804,0.58656852,-412.38929,750.48651)"
           d="m 307.14286,273.38019 c 0,24.45832 -9.9137,44.28571 -22.14286,44.28571 -12.22916,0 -22.14286,-19.82739 -22.14286,-44.28571 0,-24.45833 9.9137,-44.28572 22.14286,-44.28572 12.22916,0 22.14286,19.82739 22.14286,44.28572 z"
           sodipodi:ry="44.285713"
           sodipodi:rx="22.142857"
           sodipodi:cy="273.38019"
           sodipodi:cx="285"
           id="path5642"
           style="fill:#225500;fill-opacity:1;stroke:none"
           sodipodi:type="arc" />
        <path
           inkscape:export-ydpi="72"
           inkscape:export-xdpi="72"
           inkscape:export-filename="/home/aank/data.desain/greenbox/maskot_bg/g3581.png"
           transform="matrix(1.1922821,-0.1404514,0.09821119,0.83370817,-610.91681,697.62342)"
           d="m 307.14286,273.38019 c 0,24.45832 -9.9137,44.28571 -22.14286,44.28571 -12.22916,0 -22.14286,-19.82739 -22.14286,-44.28571 0,-24.45833 9.9137,-44.28572 22.14286,-44.28572 12.22916,0 22.14286,19.82739 22.14286,44.28572 z"
           sodipodi:ry="44.285713"
           sodipodi:rx="22.142857"
           sodipodi:cy="273.38019"
           sodipodi:cx="285"
           id="path5644"
           style="fill:#5aa02c;fill-opacity:1;stroke:none"
           sodipodi:type="arc" />
        <path
           inkscape:export-ydpi="72"
           inkscape:export-xdpi="72"
           inkscape:export-filename="/home/aank/data.desain/greenbox/maskot_bg/g3581.png"
           sodipodi:type="arc"
           style="fill:#225500;fill-opacity:1;stroke:none"
           id="path5646"
           sodipodi:cx="285"
           sodipodi:cy="273.38019"
           sodipodi:rx="22.142857"
           sodipodi:ry="44.285713"
           d="m 307.14286,273.38019 c 0,24.45832 -9.9137,44.28571 -22.14286,44.28571 -12.22916,0 -22.14286,-19.82739 -22.14286,-44.28571 0,-24.45833 9.9137,-44.28572 22.14286,-44.28572 12.22916,0 22.14286,19.82739 22.14286,44.28572 z"
           transform="matrix(0.864679,-0.1018596,0.06909804,0.58656852,-508.52897,760.57195)" />
        <path
           inkscape:export-ydpi="72"
           inkscape:export-xdpi="72"
           inkscape:export-filename="/home/aank/data.desain/greenbox/maskot_bg/g3581.png"
           sodipodi:nodetypes="ccc"
           inkscape:connector-curvature="0"
           id="path5648"
           d="m -223.49704,936.74652 c 10.29406,20.2195 61.76002,15.2177 70.77201,-9.4873 -3.88696,31.3159 -65.79132,34.1615 -70.77201,9.4873 z"
           style="fill:#225500;fill-opacity:1;stroke:none" />
        <path
           inkscape:export-ydpi="72"
           inkscape:export-xdpi="72"
           inkscape:export-filename="/home/aank/data.desain/greenbox/maskot_bg/g3581.png"
           transform="matrix(0.69009521,-0.32016648,0.325632,0.66449705,-511.90497,818.59698)"
           d="m 417.14286,270.16592 c 0,6.70632 -3.19797,12.14286 -7.14286,12.14286 -3.94489,0 -7.14286,-5.43654 -7.14286,-12.14286 0,-6.70631 3.19797,-12.14285 7.14286,-12.14285 3.94489,0 7.14286,5.43654 7.14286,12.14285 z"
           sodipodi:ry="12.142858"
           sodipodi:rx="7.1428571"
           sodipodi:cy="270.16592"
           sodipodi:cx="410"
           id="path5650"
           style="fill:#e3f4d7;fill-opacity:1;stroke:none"
           sodipodi:type="arc" />
        <path
           inkscape:export-ydpi="72"
           inkscape:export-xdpi="72"
           inkscape:export-filename="/home/aank/data.desain/greenbox/maskot_bg/g3581.png"
           sodipodi:type="arc"
           style="fill:#e3f4d7;fill-opacity:1;stroke:none"
           id="path5652"
           sodipodi:cx="410"
           sodipodi:cy="270.16592"
           sodipodi:rx="7.1428571"
           sodipodi:ry="12.142858"
           d="m 417.14286,270.16592 c 0,6.70632 -3.19797,12.14286 -7.14286,12.14286 -3.94489,0 -7.14286,-5.43654 -7.14286,-12.14286 0,-6.70631 3.19797,-12.14285 7.14286,-12.14285 3.94489,0 7.14286,5.43654 7.14286,12.14285 z"
           transform="matrix(0.69009521,-0.32016648,0.325632,0.66449705,-606.98343,829.79729)" />
        <path
           inkscape:export-ydpi="72"
           inkscape:export-xdpi="72"
           inkscape:export-filename="/home/aank/data.desain/greenbox/maskot_bg/g3581.png"
           style="fill:#bec8b7;fill-opacity:1;stroke:none"
           d="m -289.37954,873.08002 c -0.0586,-0.4245 -0.0909,-5.5272 -0.0522,-8.391 0.0892,-6.56999 0.39326,-9.61119 1.34993,-13.50378 3.06936,-12.48898 12.28179,-22.14057 26.11371,-27.35847 2.37977,-0.89776 4.82378,-1.60887 7.67794,-2.23399 1.87016,-0.4095 2.24576,-0.46413 14.87524,-2.16541 l 2.91407,-0.39234 c -30.40069,5.91663 -48.53213,16.81365 -52.87869,54.04519 z"
           id="path5654"
           inkscape:connector-curvature="0"
           sodipodi:nodetypes="csssccccc" />
        <path
           inkscape:export-ydpi="72"
           inkscape:export-xdpi="72"
           inkscape:export-filename="/home/aank/data.desain/greenbox/maskot_bg/g3581.png"
           sodipodi:type="arc"
           style="fill:#bec8b7;fill-opacity:1;stroke:none"
           id="path5656"
           sodipodi:cx="282.625"
           sodipodi:cy="371.46948"
           sodipodi:rx="5.375"
           sodipodi:ry="2.625"
           d="m 288,371.46948 c 0,1.44975 -2.40647,2.625 -5.375,2.625 -2.96853,0 -5.375,-1.17525 -5.375,-2.625 0,-1.44975 2.40647,-2.625 5.375,-2.625 2.96853,0 5.375,1.17525 5.375,2.625 z"
           transform="matrix(2.0973578,-0.24706974,0.24706974,2.0973578,-870.59867,216.57792)" />
        <g
           inkscape:export-ydpi="72"
           inkscape:export-xdpi="72"
           inkscape:export-filename="/home/aank/data.desain/greenbox/maskot_bg/g3581.png"
           id="g5658"
           transform="matrix(-2.1801796,0.32562832,0.31796922,2.1466809,340.96096,-388.53869)">
          <path
             sodipodi:nodetypes="ccssccc"
             inkscape:connector-curvature="0"
             id="path5660"
             d="m 355.95109,513.05955 c 8.94124,-0.64088 9.30861,-4.63676 11.03889,-14.27256 0.0128,-0.0112 0.32165,0.16634 0.68628,0.39445 2.90988,1.82053 5.50083,3.89083 7.77346,6.21134 0.71667,0.73177 0.7286,0.74775 0.71423,0.9559 -1.47752,10.53018 -3.33688,14.39367 -10.56962,18.62998 -1.60873,-5.46392 -4.99238,-9.70434 -9.64324,-11.91911 z"
             style="fill:#17280b;fill-opacity:1;stroke:none" />
          <path
             transform="matrix(0.27239524,0.15699325,-5.6537035e-5,0.32756206,245.42266,374.47472)"
             d="m 471.23616,188.88939 c 0,5.78813 -5.37059,10.48033 -11.99556,10.48033 -6.62497,0 -11.99556,-4.6922 -11.99556,-10.48033 0,-5.78813 5.37059,-10.48033 11.99556,-10.48033 6.62497,0 11.99556,4.6922 11.99556,10.48033 z"
             sodipodi:ry="10.480332"
             sodipodi:rx="11.995562"
             sodipodi:cy="188.88939"
             sodipodi:cx="459.2406"
             id="path5662"
             style="fill:#225500;fill-opacity:1;stroke:none"
             sodipodi:type="arc" />
          <rect
             ry="1.6752219"
             y="423.48129"
             x="403.2334"
             height="23.204927"
             width="2.8533792"
             id="rect5664"
             style="fill:#447821;fill-opacity:1;stroke:none"
             transform="matrix(0.99762333,0.06890347,-0.06890347,0.99762333,0,0)" />
          <rect
             style="fill:#2d5016;fill-opacity:1;stroke:none"
             id="rect5666"
             width="3.9356196"
             height="18.045765"
             x="402.69229"
             y="445.34653"
             ry="0"
             transform="matrix(0.99762333,0.06890347,-0.06890347,0.99762333,0,0)" />
          <path
             sodipodi:nodetypes="ccccc"
             inkscape:connector-curvature="0"
             id="path5668"
             d="m 368.00454,506.59945 1.22272,-16.64525 5.23502,0.36157 -1.22555,19.8595 c 0.0273,2.67883 -5.00725,1.04188 -5.23217,-3.57582 z"
             style="fill:#17280b;fill-opacity:1;stroke:none" />
        </g>
        <path
           inkscape:export-ydpi="72"
           inkscape:export-xdpi="72"
           inkscape:export-filename="/home/aank/data.desain/greenbox/maskot_bg/g3581.png"
           style="opacity:0.39094651;fill:#225500;fill-opacity:1;stroke:none"
           d="m -101.65396,786.09855 c 20.350232,13.52877 31.578842,40.61551 32.578582,103.91877 0.25726,-20.9014 -17.15468,-64.51849 -34.562532,-76.91072 2.28671,-4.23744 2.25331,-19.51487 1.98395,-27.00805 z"
           id="path5670"
           inkscape:connector-curvature="0"
           sodipodi:nodetypes="cccc" />
        <path
           inkscape:export-ydpi="72"
           inkscape:export-xdpi="72"
           inkscape:export-filename="/home/aank/data.desain/greenbox/maskot_bg/g3581.png"
           style="opacity:0.07818933;fill:#e3f4d7;fill-opacity:1;stroke:none"
           d="m -305.26241,963.65372 c -11.37356,-16.2226 -38.002,-125.61684 -12.9239,-142.09526 0.12655,0.1716 0.60195,2.17508 1.42147,4.32902 l 4.54156,11.93633 c -11.93249,27.58731 -7.14449,83.76701 8.42494,128.32391 -0.0547,0.067 -0.71345,-1.0553 -1.46407,-2.494 z"
           id="path5672"
           inkscape:connector-curvature="0"
           sodipodi:nodetypes="ccsccc" />
        <path
           inkscape:export-ydpi="72"
           inkscape:export-xdpi="72"
           inkscape:export-filename="/home/aank/data.desain/greenbox/maskot_bg/g3581.png"
           style="opacity:0.07818933;fill:#e3f4d7;fill-opacity:1;stroke:none"
           d="m -297.63658,809.7919 c -0.79323,-2.22551 -1.71768,-4.90989 -2.05438,-5.96524 l -0.61218,-1.91885 0.66399,-0.6328 c 1.3231,-1.26095 7.92053,-5.93824 11.67088,-8.27413 6.76886,-4.21597 13.2268,-7.39984 18.99168,-9.3632 3.20511,-1.0916 15.69403,-4.16057 16.70547,-4.10516 -20.42611,11.27899 -29.15341,18.79505 -43.74722,34.29022 -0.0967,0.008 -0.82504,-1.80531 -1.61824,-4.03084 z"
           id="path5674"
           inkscape:connector-curvature="0"
           sodipodi:nodetypes="cscssscccc" />
        <path
           inkscape:export-ydpi="72"
           inkscape:export-xdpi="72"
           inkscape:export-filename="/home/aank/data.desain/greenbox/maskot_bg/g3581.png"
           style="opacity:0.14814812;fill:#17280b;fill-opacity:1;stroke:none"
           d="m -310.38657,841.16982 c -0.0514,-0.17768 0.35941,0.37259 0.91327,1.22268 1.84089,2.82551 3.5147,4.79274 5.77496,6.78729 3.48832,3.07823 7.2974,5.34576 12.90727,7.68362 1.13125,0.47143 1.53584,0.7011 1.5031,0.85327 -0.076,0.35242 -0.24676,5.15754 -0.25201,7.08374 -0.003,1.1168 -0.0597,1.8237 -0.14645,1.8258 -9.69502,-6.94026 -14.36554,-2.6231 -20.70011,-25.4564 z"
           id="path5676"
           inkscape:connector-curvature="0"
           sodipodi:nodetypes="cssccccc" />
        <path
           inkscape:export-ydpi="72"
           inkscape:export-xdpi="72"
           inkscape:export-filename="/home/aank/data.desain/greenbox/maskot_bg/g3581.png"
           sodipodi:nodetypes="ccccc"
           inkscape:connector-curvature="0"
           id="path5678"
           d="m -101.79919,802.83553 c -1.9813,9.75103 -5.15519,17.45979 -11.39243,23.02544 -1.03098,0.66265 -1.33156,0.81418 -1.27262,0.95823 1.31918,2.22666 3.15084,5.56783 3.91318,8.3174 9.67538,-3.87504 11.214732,-12.87319 8.75187,-32.30107 z"
           style="opacity:0.14814812;fill:#17280b;fill-opacity:1;stroke:none" />
        <path
           inkscape:export-ydpi="72"
           inkscape:export-xdpi="72"
           inkscape:export-filename="/home/aank/data.desain/greenbox/maskot_bg/g3581.png"
           style="opacity:0.39094651;fill:#5aa02c;fill-opacity:1;stroke:none"
           d="m -229.78695,787.3827 c -17.148,0.5777 -31.32733,30.70085 -42.16576,23.00572 0.14285,-11.65447 37.60135,-28.3157 42.16576,-23.00572 z"
           id="path5680"
           inkscape:connector-curvature="0"
           sodipodi:nodetypes="ccc" />
        <path
           inkscape:export-ydpi="72"
           inkscape:export-xdpi="72"
           inkscape:export-filename="/home/aank/data.desain/greenbox/maskot_bg/g3581.png"
           sodipodi:type="arc"
           style="opacity:0.39094651;fill:#5aa02c;fill-opacity:1;stroke:none"
           id="path5682"
           sodipodi:cx="308.12177"
           sodipodi:cy="192.19765"
           sodipodi:rx="4.7729707"
           sodipodi:ry="1.4142135"
           d="m 312.89474,192.19765 c 0,0.78105 -2.13694,1.41421 -4.77297,1.41421 -2.63604,0 -4.77298,-0.63316 -4.77298,-1.41421 0,-0.78105 2.13694,-1.41422 4.77298,-1.41422 2.63603,0 4.77297,0.63317 4.77297,1.41422 z"
           transform="matrix(2.0585586,-0.47147629,0.47147629,2.0585586,-955.17199,542.34569)" />
        <path
           inkscape:export-ydpi="72"
           inkscape:export-xdpi="72"
           inkscape:export-filename="/home/aank/data.desain/greenbox/maskot_bg/g3581.png"
           style="opacity:0.39094651;fill:#5aa02c;fill-opacity:1;stroke:none"
           d="m -249.31851,972.87902 c -25.7517,-4.9343 -30.74683,-31.9618 -35.45888,-51.594 7.27201,15.5496 15.12691,44.1891 38.73984,52.6715 -0.15363,0.011 -1.63006,-0.474 -3.28096,-1.0775 z"
           id="path5684"
           inkscape:connector-curvature="0"
           sodipodi:nodetypes="cccc" />
        <path
           inkscape:export-ydpi="72"
           inkscape:export-xdpi="72"
           inkscape:export-filename="/home/aank/data.desain/greenbox/maskot_bg/g3581.png"
           style="opacity:0.39094651;fill:#5aa02c;fill-opacity:1;stroke:none"
           d="m -135.86576,965.26382 c 3.13899,-2.4382 37.242332,-17.1355 36.431172,-66.3923 3.76693,25.146 0.70895,44.2715 -18.990492,57.0551 -4.03405,2.939 -10.49998,6.6417 -15.84358,9.0728 -1.91882,0.873 -11.57988,8.0185 -1.5971,0.2644 z"
           id="path5686"
           inkscape:connector-curvature="0"
           sodipodi:nodetypes="sccss" />
        <path
           inkscape:export-ydpi="72"
           inkscape:export-xdpi="72"
           inkscape:export-filename="/home/aank/data.desain/greenbox/maskot_bg/g3581.png"
           style="opacity:0.39094651;fill:#225500;fill-opacity:1;stroke:none"
           d="m -152.79248,993.66932 c -32.64509,8.71958 -63.40801,7.50368 -65.40655,7.36628 -19.18916,-1.31888 -45.12006,-4.88508 -63.28903,-15.32938 -4.63752,-2.6659 -7.76438,-4.7187 -11.88198,-8.1698 -2.7039,-2.2662 -6.28992,-5.7171 -6.13413,-5.9031 8.46895,5.5107 23.49464,13.3884 35.34458,13.5425 9.77311,-0.7756 13.39856,5.7659 20.52904,7.4487 31.32553,7.39268 112.74429,-2.8436 148.118702,-26.6399 0.0984,0.076 -9.255622,7.9951 -36.115282,20.6677 z"
           id="path5688"
           inkscape:connector-curvature="0"
           sodipodi:nodetypes="csssccsccc" />
        <g
           inkscape:export-ydpi="72"
           inkscape:export-xdpi="72"
           inkscape:export-filename="/home/aank/data.desain/greenbox/maskot_bg/g3581.png"
           id="g5690"
           transform="matrix(2.1118601,0,0,2.1118601,-863.44825,-265.10367)">
          <path
             sodipodi:nodetypes="ccsccsccsscccccc"
             inkscape:connector-curvature="0"
             id="path5692"
             d="m 282.41965,601.067 c -1.62406,-2.42917 -1.57557,-4.69812 -0.31386,-6.02088 0.19573,-0.20522 0.75651,-0.57406 0.76872,-0.56185 0.0122,0.0122 -0.36019,0.41008 -0.45527,0.57859 -0.16352,2.04899 -0.67419,2.48843 0.2647,4.22672 2.14437,1.17014 5.02273,1.36628 7.04525,0.4801 0.25011,-0.10959 0.5509,-0.2644 0.66841,-0.34403 l 0.28398,-0.18383 0.32768,0.41136 c 0.18676,0.23445 0.44006,0.37231 0.49147,0.37231 0.0514,0 0.18817,-0.0396 0.30393,-0.0879 0.20571,-0.086 0.2201,-0.0815 0.63861,0.19934 0.50163,0.33658 1.57282,0.87805 2.13595,1.07969 1.95554,0.67506 2.25235,0.51568 4.0345,-0.25509 0.39538,1.57877 0.60291,7.45891 -1.15982,10.3073 -5.73784,-1.90816 -11.94096,-5.30994 -15.03425,-10.20183 z"
             style="fill:#5f8dd3;fill-opacity:1;stroke:none" />
          <path
             sodipodi:nodetypes="cscsscc"
             inkscape:connector-curvature="0"
             id="path5694"
             d="m 296.587,610.94094 c -2.57161,-0.9276 -4.75121,-1.94626 -6.85009,-3.20148 -0.41616,-0.24888 -0.60983,-0.38701 -0.55243,-0.394 -0.0258,0.0154 3.23029,2.53516 9.19281,1.32228 0.0496,-0.0101 -0.12106,0.63578 -0.31141,1.1906 -0.18631,0.54306 -0.58092,1.36557 -0.65402,1.36322 -0.0283,-9e-4 -0.39949,-0.12718 -0.82486,-0.28062 z"
             style="fill:#3771c8;fill-opacity:1;stroke:none" />
          <path
             sodipodi:nodetypes="sssss"
             inkscape:connector-curvature="0"
             id="path5696"
             d="m 292.68974,606.63862 c -0.84524,1.66492 -4.14968,-0.30659 -6.29515,-2.02029 -2.05222,-1.63922 -3.17353,-3.46778 -3.36685,-4.51398 -0.33927,-1.83611 5.15048,1.41809 7.46631,0.16413 2.41462,-1.30744 3.04094,4.70521 2.19569,6.37014 z"
             style="fill:#3b74c9;fill-opacity:1;stroke:none" />
          <path
             sodipodi:nodetypes="ccssscccccscccc"
             inkscape:connector-curvature="0"
             id="path5698"
             d="m 289.59344,594.25403 c -0.97109,-0.60982 -2.67119,-0.97878 -4.17187,-0.90539 -0.74549,0.0365 -1.31497,0.12074 -1.86724,0.27635 -0.10612,0.0299 -0.20031,0.0544 -0.2093,0.0544 -0.009,0 -0.0274,-0.0404 -0.041,-0.0898 -0.0136,-0.0494 -0.0842,-0.293 -0.15706,-0.54129 -0.0728,-0.2483 -0.12964,-0.45422 -0.12625,-0.45761 2.47551,-1.7044 4.49308,-1.44782 6.87923,0.5347 l 0.0331,0.0208 -0.0663,0.32006 c -0.0364,0.17604 -0.0863,0.44016 -0.1109,0.58694 -0.0246,0.14678 -0.0483,0.26639 -0.0528,0.26579 -0.004,-6e-4 -0.0538,-0.0298 -0.10968,-0.0649 l 0,0 z"
             style="fill:#59a796;fill-opacity:1;stroke:none" />
          <path
             sodipodi:nodetypes="ccccc"
             inkscape:connector-curvature="0"
             id="path5700"
             d="m 282.7722,591.64486 c 1.3355,-2.27367 5.8623,-1.93966 7.6271,0.07 -3.1838,10.87435 4.14403,13.83307 6.24942,17.13921 0.53464,4.83953 -18.73096,5.57833 -18.45552,-0.25585 0.11071,-3.09723 9.08064,-4.30422 4.579,-16.95332 z"
             style="opacity:0.7037037;fill:#69b8d6;fill-opacity:0.99607843;stroke:none" />
          <path
             sodipodi:nodetypes="cssccccsssc"
             inkscape:connector-curvature="0"
             id="path5702"
             d="m 285.29831,612.60278 c -1.85823,-0.26013 -2.37068,-0.35275 -3.1875,-0.57611 -1.00833,-0.27573 -2.19315,-0.82571 -2.83764,-1.31719 -0.37367,-0.28496 -1.03736,-1.39526 -1.03736,-1.73542 0.11418,-2.79605 3.73312,0.21042 8.0625,-1.08398 4.56675,-1.57034 2.06736,-3.62818 0.82142,-3.50045 0.80816,-1.20064 3.34023,-1.64929 4.97051,-0.5565 0.1004,0.14489 0.86291,1.11084 1.82813,2.12747 2.74281,2.88892 2.736,2.88021 2.64319,3.37492 -0.24893,1.32692 -2.34651,2.45441 -5.63825,3.03066 -1.07599,0.18836 -4.83895,0.34664 -5.625,0.2366 z"
             style="opacity:0.7037037;fill:#296042;fill-opacity:1;stroke:none" />
          <path
             sodipodi:nodetypes="csssccccccssccc"
             inkscape:connector-curvature="0"
             id="path5704"
             d="m 285.49387,612.60541 c -0.54064,-0.0513 -2.19659,-0.31548 -2.75,-0.4387 -1.16315,-0.25897 -2.37327,-0.74981 -3.2119,-1.30277 -0.23318,-0.15375 -0.36385,-0.26635 -0.48718,-0.41981 -0.35323,-0.43953 -0.69885,-1.04997 -0.76724,-1.35512 -0.0678,-0.3024 0.072,-0.80966 0.28311,-1.02715 0.33398,-0.34414 0.84877,-0.3856 2.14083,-0.17242 l 0.47325,0.0781 c 5.22365,2.87148 13.91418,2.33903 14.4832,-0.14196 0.18086,0.25557 1.40007,1.05497 0.6875,2.01879 -0.25017,0.43175 -0.85179,0.94145 -1.54402,1.30808 -1.11205,0.58899 -3.02242,1.12368 -4.5888,1.28434 -1.01925,0.10454 -4.19739,0.21813 -4.71875,0.16864 l 0,0 z"
             style="opacity:0.7037037;fill:#134d3a;fill-opacity:1;stroke:none" />
          <path
             sodipodi:nodetypes="ccccccsccc"
             inkscape:connector-curvature="0"
             id="path5706"
             d="m 284.60533,612.46982 c -1.63494,-0.25639 -2.3571,-0.41758 -3.16123,-0.70564 -0.92496,-0.33133 -1.87055,-0.83928 -2.25218,-1.20982 -0.21025,-0.75685 -0.006,-0.81477 0.6254,-0.58484 4.75758,3.1017 13.47615,1.62978 14.83113,0.65265 0.46551,-0.25428 0.6769,0.19933 0.4309,0.34893 -0.59338,0.36091 -1.59159,0.74912 -2.639,1.02632 -1.53614,0.40653 -2.75032,0.52861 -5.55902,0.55894 -1.52433,0.0165 -1.64957,0.0117 -2.276,-0.0865 z"
             style="opacity:0.7037037;fill:#1e8148;fill-opacity:1;stroke:none" />
          <path
             transform="matrix(0.96470363,-0.26333802,0.26333802,0.96470363,-69.360435,392.40289)"
             d="m 286.90859,298.08688 c 0,0.39053 -0.59359,0.70711 -1.32583,0.70711 -0.73223,0 -1.32582,-0.31658 -1.32582,-0.70711 0,-0.39052 0.59359,-0.7071 1.32582,-0.7071 0.73224,0 1.32583,0.31658 1.32583,0.7071 z"
             sodipodi:ry="0.70710677"
             sodipodi:rx="1.3258252"
             sodipodi:cy="298.08688"
             sodipodi:cx="285.58276"
             id="path5708"
             style="opacity:0.7037037;fill:#296042;fill-opacity:1;stroke:none"
             sodipodi:type="arc" />
          <path
             sodipodi:type="arc"
             style="opacity:0.7037037;fill:#296042;fill-opacity:1;stroke:none"
             id="path5710"
             sodipodi:cx="285.58276"
             sodipodi:cy="298.08688"
             sodipodi:rx="1.3258252"
             sodipodi:ry="0.70710677"
             d="m 286.90859,298.08688 c 0,0.39053 -0.59359,0.70711 -1.32583,0.70711 -0.73223,0 -1.32582,-0.31658 -1.32582,-0.70711 0,-0.39052 0.59359,-0.7071 1.32582,-0.7071 0.73224,0 1.32583,0.31658 1.32583,0.7071 z"
             transform="matrix(0.53594689,-0.14629902,0.14629902,0.53594689,86.956425,488.93794)" />
          <path
             sodipodi:type="arc"
             style="opacity:0.7037037;fill:#134d3a;fill-opacity:1;stroke:none"
             id="path5712"
             sodipodi:cx="285.58276"
             sodipodi:cy="298.08688"
             sodipodi:rx="1.3258252"
             sodipodi:ry="0.70710677"
             d="m 286.90859,298.08688 c 0,0.39053 -0.59359,0.70711 -1.32583,0.70711 -0.73223,0 -1.32582,-0.31658 -1.32582,-0.70711 0,-0.39052 0.59359,-0.7071 1.32582,-0.7071 0.73224,0 1.32583,0.31658 1.32583,0.7071 z"
             transform="matrix(0.59732218,-0.16305282,0.16305282,0.59732218,65.867915,473.13555)" />
          <path
             transform="matrix(0.39828375,-0.1087207,0.1087207,0.39828375,137.41279,519.2418)"
             d="m 286.90859,298.08688 c 0,0.39053 -0.59359,0.70711 -1.32583,0.70711 -0.73223,0 -1.32582,-0.31658 -1.32582,-0.70711 0,-0.39052 0.59359,-0.7071 1.32582,-0.7071 0.73224,0 1.32583,0.31658 1.32583,0.7071 z"
             sodipodi:ry="0.70710677"
             sodipodi:rx="1.3258252"
             sodipodi:cy="298.08688"
             sodipodi:cx="285.58276"
             id="path5714"
             style="opacity:0.7037037;fill:#134d3a;fill-opacity:1;stroke:none"
             sodipodi:type="arc" />
          <path
             transform="matrix(0.48071572,-0.13122241,0.13122241,0.48071572,108.04757,499.0062)"
             d="m 286.90859,298.08688 c 0,0.39053 -0.59359,0.70711 -1.32583,0.70711 -0.73223,0 -1.32582,-0.31658 -1.32582,-0.70711 0,-0.39052 0.59359,-0.7071 1.32582,-0.7071 0.73224,0 1.32583,0.31658 1.32583,0.7071 z"
             sodipodi:ry="0.70710677"
             sodipodi:rx="1.3258252"
             sodipodi:cy="298.08688"
             sodipodi:cx="285.58276"
             id="path5716"
             style="opacity:0.7037037;fill:#1e8148;fill-opacity:1;stroke:none"
             sodipodi:type="arc" />
          <path
             sodipodi:type="arc"
             style="opacity:0.7037037;fill:#1e8148;fill-opacity:1;stroke:none"
             id="path5718"
             sodipodi:cx="285.58276"
             sodipodi:cy="298.08688"
             sodipodi:rx="1.3258252"
             sodipodi:ry="0.70710677"
             d="m 286.90859,298.08688 c 0,0.39053 -0.59359,0.70711 -1.32583,0.70711 -0.73223,0 -1.32582,-0.31658 -1.32582,-0.70711 0,-0.39052 0.59359,-0.7071 1.32582,-0.7071 0.73224,0 1.32583,0.31658 1.32583,0.7071 z"
             transform="matrix(0.24961051,-0.06813692,0.06813692,0.24961051,192.13675,551.97309)" />
          <g
             transform="translate(0,-1.5909903)"
             style="fill:#5f8dd3;fill-opacity:1"
             id="g5720">
            <path
               style="fill:#5f8dd3;fill-opacity:1;stroke:none"
               d="m 291.45019,597.2574 c 0.36071,0.33809 0.65225,1.00808 1.38753,0.56801 0.88684,-0.61922 1.17016,0.59154 0.5324,2.27638 -0.30759,0.65253 -0.48555,1.1744 -1.81901,1.63159 -1.94519,-1.27602 -1.16456,-2.81256 -0.10089,-4.47598 z"
               id="path5722"
               inkscape:connector-curvature="0"
               sodipodi:nodetypes="cccccc" />
            <path
               style="fill:#5f8dd3;fill-opacity:1;stroke:none"
               d="m 291.99091,289.51321 c 0.49281,4.00633 -5.91703,6.10783 -9.89015,3.70676 -4.69557,-7.75819 9.58676,-9.7026 9.89015,-3.70676 z"
               id="path5724"
               inkscape:connector-curvature="0"
               sodipodi:nodetypes="ccc"
               transform="translate(0,308.2677)" />
          </g>
          <path
             transform="matrix(1.0353553,0,0,0.86756273,-11.549441,345.06232)"
             d="m 291.375,294.03198 c 0,0.79391 -1.39911,1.4375 -3.125,1.4375 -1.72589,0 -3.125,-0.64359 -3.125,-1.4375 0,-0.79391 1.39911,-1.4375 3.125,-1.4375 1.72589,0 3.125,0.64359 3.125,1.4375 z"
             sodipodi:ry="1.4375"
             sodipodi:rx="3.125"
             sodipodi:cy="294.03198"
             sodipodi:cx="288.25"
             id="path5726"
             style="fill:#214478;fill-opacity:1;stroke:none"
             sodipodi:type="arc" />
          <g
             transform="translate(-1.03125,-1.5909903)"
             style="opacity:0.81481479;filter:url(#filter5489)"
             id="g5728">
            <path
               style="fill:#ffffff;stroke:none"
               d="m 295.3125,300.50073 c -0.35649,-1.02022 -3.44873,-2.00445 -5.04688,-5.40625 -0.22507,-0.68667 -0.93162,-2.0578 -0.76562,-0.9375 0.47641,3.82278 5.54828,8.04541 5.8125,6.34375 z"
               id="path5730"
               inkscape:connector-curvature="0"
               transform="translate(0,308.2677)"
               sodipodi:nodetypes="cccc" />
            <path
               sodipodi:nodetypes="ccc"
               inkscape:connector-curvature="0"
               id="path5732"
               d="m 291.78125,607.86921 c -1.07578,-0.93287 -1.0234,-1.48994 -1.93132,-1.96769 0.40552,1.99212 1.92292,2.84488 1.93132,1.96769 z"
               style="fill:#ffffff;stroke:none" />
          </g>
          <path
             sodipodi:nodetypes="ccccccc"
             inkscape:connector-curvature="0"
             id="path5734"
             d="m 290.51311,600.24322 c 1.29702,-1.03054 1.49935,-3.54659 1.4833,-4.02056 1.49249,1.10367 0.23556,3.54493 -0.67946,3.84348 -0.40566,0.1181 -0.7674,0.22096 -0.80386,0.22859 l -0.0663,0.0139 0.0663,-0.0654 z"
             style="opacity:0.909465;fill:#3771c8;fill-opacity:1;stroke:none" />
          <path
             sodipodi:nodetypes="cccc"
             inkscape:connector-curvature="0"
             id="path5736"
             d="m 291.861,595.41261 c -0.50948,1.81666 -1.08536,2.87155 -2.91949,3.00913 1.38382,0.47474 1.47012,0.63648 1.52091,1.88917 1.27476,-0.94287 1.82158,-3.68173 1.39858,-4.8983 z"
             style="fill:#87aade;stroke:none" />
          <path
             sodipodi:nodetypes="sssss"
             inkscape:connector-curvature="0"
             id="path5738"
             d="m 291.81424,595.69816 c -0.15864,1.2896 -1.34268,1.8916 -5.03805,2.32828 -3.23542,0.38232 -5.36099,1.16474 -5.60471,-0.72692 -0.24372,-1.89167 1.33641,-4.0483 4.7568,-4.5632 2.78225,-0.41884 6.14202,0.88032 5.88596,2.96184 z"
             style="fill:#aaccff;fill-opacity:1;stroke:none" />
          <path
             transform="matrix(0.88059428,0.47387099,-0.47387099,0.88059428,169.84444,208.89485)"
             d="m 282.21875,287.21948 c 0,0.25026 -0.0909,0.45313 -0.20313,0.45313 -0.11218,0 -0.20312,-0.20287 -0.20312,-0.45313 0,-0.25025 0.0909,-0.45312 0.20312,-0.45312 0.11219,0 0.20313,0.20287 0.20313,0.45312 z"
             sodipodi:ry="0.453125"
             sodipodi:rx="0.203125"
             sodipodi:cy="287.21948"
             sodipodi:cx="282.01562"
             id="path5740"
             style="opacity:0.909465;fill:#d7e3f4;fill-opacity:1;stroke:none"
             sodipodi:type="arc" />
          <path
             sodipodi:nodetypes="cccc"
             inkscape:connector-curvature="0"
             id="path5742"
             d="m 282.84375,594.92469 c -0.36907,0.31729 -0.49994,0.0422 -0.17187,-0.34376 1.61261,-2.08367 7.7762,-2.25281 7.98437,0.20313 -2.00055,-1.97953 -5.6332,-1.75434 -7.8125,0.14063 z"
             style="fill:#d5e5ff;stroke:none" />
          <path
             style="opacity:0.60905349;fill:#ffffff;stroke:none;filter:url(#filter5489)"
             d="m 295.3125,300.50073 c -0.35649,-1.02022 -3.44873,-2.00445 -5.04688,-5.40625 -0.22507,-0.68667 -0.93162,-2.0578 -0.76562,-0.9375 0.47641,3.82278 5.54828,8.04541 5.8125,6.34375 z"
             id="path5744"
             inkscape:connector-curvature="0"
             transform="matrix(-0.57229798,0.1033291,0.08951625,0.66060668,423.48864,375.54602)"
             sodipodi:nodetypes="cccc" />
        </g>
        <path
           inkscape:export-ydpi="72"
           inkscape:export-xdpi="72"
           inkscape:export-filename="/home/aank/data.desain/greenbox/maskot_bg/g3581.png"
           sodipodi:type="arc"
           style="fill:#e3f4d7;fill-opacity:1;stroke:none"
           id="path5746"
           sodipodi:cx="325.00397"
           sodipodi:cy="306.26282"
           sodipodi:rx="12.727922"
           sodipodi:ry="13.656"
           d="m 337.73189,306.26282 c 0,7.542 -5.69849,13.656 -12.72792,13.656 -7.02944,0 -12.72793,-6.114 -12.72793,-13.656 0,-7.542 5.69849,-13.656 12.72793,-13.656 7.02943,0 12.72792,6.114 12.72792,13.656 z"
           transform="matrix(2.121925,0,0,2.3125563,-868.77273,327.52975)" />
        <path
           inkscape:export-ydpi="72"
           inkscape:export-xdpi="72"
           inkscape:export-filename="/home/aank/data.desain/greenbox/maskot_bg/g3581.png"
           transform="matrix(1.7816308,0,0,1.9416908,-758.17581,441.11212)"
           d="m 337.73189,306.26282 c 0,7.542 -5.69849,13.656 -12.72792,13.656 -7.02944,0 -12.72793,-6.114 -12.72793,-13.656 0,-7.542 5.69849,-13.656 12.72793,-13.656 7.02943,0 12.72792,6.114 12.72792,13.656 z"
           sodipodi:ry="13.656"
           sodipodi:rx="12.727922"
           sodipodi:cy="306.26282"
           sodipodi:cx="325.00397"
           id="path5748"
           style="fill:#338000;fill-opacity:1;stroke:none"
           sodipodi:type="arc" />
        <g
           inkscape:export-ydpi="72"
           inkscape:export-xdpi="72"
           inkscape:export-filename="/home/aank/data.desain/greenbox/maskot_bg/g3581.png"
           id="g5750"
           transform="matrix(2.1118601,0,0,2.1118601,-863.44825,-265.10367)">
          <path
             sodipodi:nodetypes="ccccccc"
             transform="translate(0,308.2677)"
             inkscape:connector-curvature="0"
             id="path5752"
             d="m 292.62027,327.1999 -1.13321,-2.86383 c 1.37875,-0.12849 2.6572,-0.69874 3.56766,-1.45594 l 1.90153,8.13319 c 0.4443,1.74532 -2.12166,2.11668 -2.46499,0.92932 l -1.87099,-4.74276 z"
             style="fill:#c87137;fill-opacity:1;stroke:none" />
          <path
             style="fill:#d38d5f;fill-opacity:1;stroke:none"
             d="m 301.02746,623.33112 c -1.43189,-3.20623 -4.98882,-6.9758 -5.93898,-7.53301 -2.8733,1.8369 -7.37867,6.9244 -8.07085,10.59181 -0.26802,0.87501 -0.84947,3.29722 0.52107,4.79059 1.12032,-1.83272 4.16074,-6.67342 6.72742,-5.97892 0.75161,0.20337 2.02639,-0.0291 2.2705,0.36724 0.6147,-0.44599 3.68991,-1.7176 4.49084,-2.23771 z"
             id="path5754"
             inkscape:connector-curvature="0"
             sodipodi:nodetypes="ccccscc" />
          <path
             sodipodi:nodetypes="ccccc"
             inkscape:connector-curvature="0"
             id="path5756"
             d="m 298.252,627.30076 c 1.02196,0.51301 0.99948,1.43647 -0.88795,1.69122 -0.76148,0.0423 -2.40851,-0.52237 -3.32164,-1.81896 -0.0796,-2.40644 -1.33158,-3.67602 1.12584,-2.03401 2.30497,0.31779 2.40275,0.66547 3.08375,2.16175 z"
             style="fill:#d38d5f;fill-opacity:1;stroke:none" />
          <path
             sodipodi:nodetypes="ccc"
             inkscape:connector-curvature="0"
             id="path5758"
             d="m 294.66531,625.88855 c 5.78625,4.09501 -4.29362,9.80056 -7.51278,4.7944 -2.38475,-4.9089 7.2552,-0.57042 7.51278,-4.7944 z"
             style="fill:#c87137;fill-opacity:1;stroke:none" />
          <path
             style="fill:#ffccaa;fill-opacity:1;stroke:none"
             d="m 287.74929,628.5824 c -2.19058,1.72948 1.20529,4.79532 4.81293,3.81751 2.0693,-0.56086 3.47343,-2.1168 3.90172,-3.01325 0.55431,-1.16023 -2.09657,-5.36976 -2.17905,-2.53744 -0.0599,2.05503 -5.84814,1.38797 -6.53561,1.73316 z"
             id="path5760"
             inkscape:connector-curvature="0"
             sodipodi:nodetypes="cssssc" />
          <path
             sodipodi:nodetypes="ccccc"
             inkscape:connector-curvature="0"
             id="path5762"
             d="m 293.78667,628.01936 c 0.26382,-0.18002 0.3526,-0.042 0.11692,0.16791 -1.1607,1.12242 -5.54809,1.95261 -5.66679,0.78524 2.09926,-0.34254 3.98657,0.0616 5.5499,-0.95316 z"
             style="fill:#d5e5ff;stroke:none" />
          <path
             sodipodi:type="arc"
             style="opacity:0.909465;fill:#d5e5ff;fill-opacity:1;stroke:none"
             id="path5764"
             sodipodi:cx="352.29688"
             sodipodi:cy="316.70386"
             sodipodi:rx="0.171875"
             sodipodi:ry="0.453125"
             d="m 352.46875,316.70386 c 0,0.25025 -0.077,0.45312 -0.17188,0.45312 -0.0949,0 -0.17187,-0.20287 -0.17187,-0.45312 0,-0.25026 0.077,-0.45313 0.17187,-0.45313 0.0949,0 0.17188,0.20287 0.17188,0.45313 z"
             transform="matrix(-0.9482318,-0.46746122,-0.46746122,0.9482318,776.73413,491.83689)" />
          <path
             style="fill:#a05a2c;fill-opacity:1;stroke:none"
             d="m 297.91723,628.8675 c -0.63889,-1.47105 -1.68295,-2.3172 -2.7349,-2.77584 0.39652,0.44006 0.72784,1.03182 0.96232,1.44254 0.22882,0.57538 0.34475,1.03981 0.35461,1.47394 0.001,0.0623 0.003,0.12666 0.003,0.14305 0.001,0.0529 0.0172,-0.0343 0.0297,-0.16262 0.006,-0.064 0.0128,-0.11888 0.0143,-0.12181 0.002,-0.003 0.0106,-10e-4 0.02,0.003 0.0364,0.0182 0.32711,0.0825 0.44207,0.0978 0.23936,0.0318 0.33614,0.0265 0.63918,-0.035 0.15908,-0.0321 0.27099,-0.0589 0.2694,-0.065 l 0,0 z"
             id="path5766"
             inkscape:connector-curvature="0"
             sodipodi:nodetypes="ccccccccccccc" />
          <path
             style="fill:#c87137;fill-opacity:1;stroke:none"
             d="m 297.09238,625.23706 c 0.15837,-0.0817 0.91239,-0.44273 1.67558,-0.80242 0.76321,-0.35969 1.54587,-0.73792 1.73926,-0.84051 0.1934,-0.1026 0.38255,-0.20137 0.42033,-0.21951 0.0378,-0.0184 0.0644,-0.0519 0.059,-0.075 -0.0164,-0.0715 -0.26278,-0.56024 -0.49993,-0.99169 -0.19913,-0.36229 -0.96646,-1.53387 -0.93084,-1.49878 1.3235,1.30405 -4.37314,4.50483 -4.83971,4.14684 -0.0128,0.0172 1.78698,0.38852 2.07079,0.42713 0.01,9.7e-4 0.14706,-0.0644 0.30545,-0.14608 z"
             id="path5768"
             inkscape:connector-curvature="0"
             sodipodi:nodetypes="csccscscccc" />
          <path
             sodipodi:nodetypes="csccsccccccccc"
             style="fill:#a05a2c;fill-opacity:1;stroke:none"
             d="m 286.84154,629.68622 c -0.0258,-0.3546 0.18477,-0.66941 0.64649,-0.96642 0.27565,-0.17732 0.51007,-0.23196 1.08155,-0.25238 0.47405,-0.0167 1.20807,-0.0277 1.12518,-0.057 -0.0384,-0.0135 -0.32914,-0.7698 -0.7929,-2.24528 -0.33541,-1.06712 -0.97594,-2.06319 -0.98832,-2.11582 -0.0203,-0.0862 -0.18994,0.30649 -0.32789,0.62777 -0.0842,0.19594 -0.20749,0.51365 -0.27404,0.70601 -0.16544,0.47822 -0.47903,1.76692 -0.55473,2.27955 -0.10607,0.71842 -0.0891,1.53585 0.0413,1.99033 l 0.0548,0.1908 -0.0115,-0.15792 0,0 z"
             id="path5770"
             inkscape:connector-curvature="0" />
          <path
             sodipodi:nodetypes="cccccc"
             transform="translate(0,308.2677)"
             inkscape:connector-curvature="0"
             id="path5772"
             d="m 294.24481,318.92444 -1.90035,-8.08754 -4.95242,-4.74681 -0.79282,6.66926 2.9831,7.29203 c 0.56616,0.86161 4.24428,0.40374 4.66249,-1.12694 z"
             style="fill:#c87137;fill-opacity:1;stroke:none" />
          <path
             sodipodi:nodetypes="ccccccc"
             transform="translate(0,308.2677)"
             inkscape:connector-curvature="0"
             id="path5774"
             d="m 286.72953,312.77725 c 0.29002,-2.31762 0.46447,-4.03664 0.74629,-6.40335 l 4.78496,4.52026 c -0.0337,0.17946 -0.009,0.52762 -0.67011,0.48364 -0.1531,0.46872 -0.90465,0.97468 -1.92755,0.78064 -0.58435,0.4599 -1.20172,0.83412 -2.03125,0.58201 -0.51943,0.30703 -0.79041,0.17431 -0.90234,0.0368 z"
             style="fill:#ffccaa;fill-opacity:1;stroke:none" />
          <path
             sodipodi:nodetypes="cccc"
             transform="translate(0,308.2677)"
             inkscape:connector-curvature="0"
             id="path5776"
             d="m 287.15042,308.2892 c 0.01,-0.16425 0.24454,-2.12243 0.25682,-2.13676 0.01,-0.0117 1.54593,1.44851 1.54593,1.46973 -0.14378,0.67471 -1.33111,1.0424 -1.80275,0.66703 z"
             style="fill:#a05a2c;fill-opacity:1;stroke:none" />
          <path
             transform="translate(0,308.2677)"
             inkscape:connector-curvature="0"
             id="path5778"
             d="m 290.24605,320.39693 c -0.23053,-0.0485 -0.47785,-0.16346 -0.58064,-0.26977 -0.0736,-0.0761 -0.0836,-0.10014 -2.44406,-5.87628 l -0.61108,-1.49532 0.2632,-2.213 c 0.14476,-1.21715 0.26938,-2.21917 0.27693,-2.22672 0.008,-0.008 0.0298,0.002 0.0495,0.022 0.0329,0.0329 0.025,0.12961 -0.10068,1.22507 -0.075,0.65414 -0.19133,1.64506 -0.25846,2.20206 -0.13413,1.11292 -0.13512,1.04409 0.0162,1.12127 0.14895,0.076 0.49452,0.0358 0.67186,-0.0782 0.0476,-0.0306 0.0472,-0.0317 2.79217,7.17526 0.0965,0.2533 0.16322,0.45782 0.14911,0.45696 -0.014,-8.6e-4 -0.11482,-0.0204 -0.22396,-0.0433 z"
             style="fill:#784421;fill-opacity:1;stroke:none" />
          <path
             transform="translate(0,308.2677)"
             inkscape:connector-curvature="0"
             id="path5780"
             d="m 290.62327,320.42817 c -0.60647,-1.57611 -2.90918,-7.63789 -2.90356,-7.64351 0.004,-0.004 0.0525,0.003 0.10687,0.0155 0.0544,0.013 0.20325,0.0239 0.33086,0.0243 0.43298,0.001 0.84295,-0.15942 1.33595,-0.52402 0.13109,-0.0969 0.17045,-0.11664 0.18054,-0.0903 0.007,0.0185 0.57241,1.85086 1.25625,4.07191 1.0995,3.57109 1.23893,4.03998 1.20515,4.05296 -0.1392,0.0535 -0.64682,0.11301 -1.05207,0.1234 -0.42001,0.0108 -0.44485,0.009 -0.45999,-0.0302 l 0,0 z"
             style="fill:#a05a2c;fill-opacity:1;stroke:none" />
          <path
             transform="translate(0,308.2677)"
             inkscape:connector-curvature="0"
             id="path5782"
             d="m 291.05596,316.2679 c -0.68321,-2.21932 -1.24199,-4.0414 -1.24172,-4.04907 2.6e-4,-0.008 0.15709,-0.0191 0.34851,-0.0254 0.40239,-0.0133 0.5237,-0.0406 0.81436,-0.18326 0.23475,-0.11522 0.44541,-0.29446 0.5393,-0.45886 0.0411,-0.072 0.068,-0.10052 0.0751,-0.0799 0.006,0.0177 0.46462,1.88117 1.01888,4.14109 l 1.00775,4.10893 -0.0511,0.039 c -0.16933,0.12913 -0.71669,0.37416 -1.09088,0.48833 l -0.17801,0.0543 -1.24221,-4.03514 0,0 z"
             style="fill:#d38d5f;fill-opacity:1;stroke:none" />
          <path
             transform="translate(0,308.2677)"
             inkscape:connector-curvature="0"
             id="path5784"
             d="m 293.7241,319.6195 c -9.9e-4,-0.003 -0.45678,-1.85583 -1.01288,-4.11636 l -1.01109,-4.11006 0.1412,-0.0166 c 0.0777,-0.009 0.17,-0.0315 0.2052,-0.0497 0.0977,-0.0505 0.17414,-0.16737 0.20275,-0.30983 l 0.0258,-0.1287 -0.14192,-0.13294 c -1.65966,-1.55459 -3.20217,-3.03215 -3.1923,-3.05787 0.007,-0.0172 0.012,-0.0458 0.012,-0.0634 0,-0.0177 0.70352,0.64191 1.56337,1.46567 0.85985,0.82376 1.62093,1.55246 1.69129,1.61935 l 0.12792,0.1216 0.93127,3.96643 c 0.5122,2.18153 0.93939,3.96974 0.94932,3.97379 0.01,0.004 0.018,0.0435 0.018,0.0876 0,0.11607 -0.15375,0.40992 -0.30024,0.57383 -0.10503,0.11753 -0.20317,0.20044 -0.2098,0.17724 l 0,0 z"
             style="fill:#ffb380;fill-opacity:1;stroke:none" />
          <path
             transform="translate(0,308.2677)"
             inkscape:connector-curvature="0"
             id="path5787"
             d="m 296.76929,332.03284 c 0,-0.0159 -2.1206,-8.66561 -2.14273,-8.73992 -0.0102,-0.0343 0.0523,-0.1023 0.19592,-0.2132 0.20681,-0.15966 0.21139,-0.16142 0.23476,-0.0903 0.0131,0.0399 0.44799,1.87961 0.9664,4.0882 0.87051,3.70871 0.94279,4.03832 0.94566,4.3125 0.003,0.26089 -0.007,0.31866 -0.0811,0.47656 -0.0717,0.15308 -0.11891,0.21898 -0.11891,0.16611 z"
             style="fill:#d38d5f;fill-opacity:1;stroke:none" />
          <path
             transform="translate(0,308.2677)"
             inkscape:connector-curvature="0"
             id="path5789"
             d="m 296.07085,332.52179 c -0.0265,-0.0448 -2.64531,-8.56946 -2.64531,-8.61092 0,-0.0239 0.1328,-0.10282 0.30018,-0.17844 0.1651,-0.0746 0.3072,-0.15391 0.31577,-0.17626 0.009,-0.0224 0.0262,-0.0341 0.0391,-0.0261 0.0129,0.008 0.10527,-0.0347 0.20518,-0.0949 0.0999,-0.0602 0.19177,-0.0984 0.20414,-0.085 0.0124,0.0134 0.50931,2.00718 1.10433,4.43062 l 1.08184,4.40625 -0.10184,0.0883 c -0.15479,0.13418 -0.47662,0.29175 -0.5034,0.24646 l 0,0 z"
             style="fill:#d38d5f;fill-opacity:1;stroke:none" />
          <path
             transform="translate(0,308.2677)"
             inkscape:connector-curvature="0"
             id="path5791"
             d="m 295.29264,332.56986 c -0.0581,-0.0444 -3.18889,-8.2354 -3.1683,-8.28906 0.007,-0.0192 0.10331,-0.0514 0.21324,-0.0717 0.10992,-0.0203 0.36542,-0.0905 0.56778,-0.15604 0.20236,-0.0656 0.37224,-0.11147 0.37751,-0.10199 0.005,0.009 0.60422,1.94863 1.33099,4.30925 1.07779,3.50076 1.3133,4.29715 1.27747,4.31983 -0.068,0.0431 -0.53951,0.035 -0.59869,-0.0103 z"
             style="fill:#a05a2c;fill-opacity:1;stroke:none" />
          <path
             transform="translate(0,308.2677)"
             inkscape:connector-curvature="0"
             id="path5793"
             d="m 294.87426,332.41084 c -0.0835,-0.0574 -0.18994,-0.15933 -0.23649,-0.22656 -0.0466,-0.0672 -0.61129,-1.45817 -1.25497,-3.09098 -0.64368,-1.63282 -1.32594,-3.36215 -1.51613,-3.84298 -0.19019,-0.48082 -0.33562,-0.88431 -0.32316,-0.89665 0.0125,-0.0123 0.11248,-0.0267 0.22227,-0.032 l 0.19962,-0.01 1.55691,4.07812 c 0.85631,2.24297 1.5575,4.08867 1.5582,4.10156 0.002,0.0453 -0.0559,0.0224 -0.20625,-0.0809 l 0,0 z"
             style="fill:#784421;fill-opacity:1;stroke:none" />
        </g>
        <g
           inkscape:export-ydpi="72"
           inkscape:export-xdpi="72"
           inkscape:export-filename="/home/aank/data.desain/greenbox/maskot_bg/g3581.png"
           id="g5795"
           transform="matrix(1.016925,-0.95617954,0.95617954,1.016925,-972.22069,564.43984)">
          <path
             style="fill:#ffa0a0;fill-opacity:1;stroke:none"
             d="m 218.63242,657.45471 c 1.17491,-5.96179 5.71621,-13.69581 7.10331,-15.00319 5.55692,1.98682 15.12405,8.8251 17.71017,14.74316 0.79054,1.37218 2.58696,5.35407 0.85295,8.40308 -2.59856,-2.65787 -9.47804,-9.76782 -13.53859,-7.60358 -1.18907,0.63378 -3.42917,0.73471 -3.68758,1.49771 -1.20933,-0.51446 -6.88815,-1.46973 -8.44026,-2.03718 z"
             id="path5797"
             inkscape:connector-curvature="0"
             sodipodi:nodetypes="ccccscc" />
          <g
             id="g5799"
             transform="matrix(1.8294574,0,0,1.8294574,-436.50522,-489.17102)">
            <path
               sodipodi:nodetypes="csssccc"
               inkscape:connector-curvature="0"
               id="path5801"
               d="m 371.0766,618.3287 -1.48014,18.82167 c -0.15142,1.9248 -1.4615,3.328 -2.95751,3.14465 -1.49601,-0.18336 -2.58348,-1.88093 -2.44323,-3.80657 l 1.34756,-18.50127 c -0.66473,-1.416 6.14484,-1.22097 5.53334,0.34152 z"
               style="fill:#ffd5d5;fill-opacity:1;stroke:none" />
            <path
               inkscape:connector-curvature="0"
               id="path5803"
               d="m 368.56777,619.13863 c -1.05106,-0.0225 -2.1116,-0.25463 -2.74483,-0.60088 -0.34607,-0.18923 -0.56116,-0.39901 -0.62798,-0.61247 -0.0211,-0.0676 -0.0241,-0.1618 -0.007,-0.22914 0.0687,-0.27312 0.36604,-0.49784 0.88247,-0.66711 0.65739,-0.21547 1.60313,-0.29018 2.55081,-0.20148 1.16209,0.10871 2.15207,0.44377 2.58558,0.87497 0.2326,0.23136 0.27731,0.48478 0.12513,0.70924 -0.0328,0.0484 -0.10507,0.12438 -0.16203,0.1703 -0.37232,0.30038 -1.08285,0.49602 -1.99019,0.54799 -0.20267,0.0116 -0.36437,0.0139 -0.61183,0.009 l 0,0 z m 0.58359,-0.19047 c 1.1127,-0.0634 1.89479,-0.34262 2.02734,-0.72376 0.10155,-0.29193 -0.1981,-0.60401 -0.80996,-0.84366 -0.55333,-0.21672 -1.25736,-0.35296 -2.05197,-0.39711 -0.20386,-0.0114 -0.63693,-0.0128 -0.8288,-0.003 -1.07516,0.0557 -1.86595,0.31657 -2.0471,0.67541 -0.0543,0.10757 -0.0542,0.23065 3.4e-4,0.33819 0.0363,0.0717 0.11766,0.16614 0.20236,0.23508 0.42423,0.34527 1.326,0.61219 2.36572,0.70024 0.33401,0.0283 0.8298,0.0364 1.14207,0.0185 l 0,0 z"
               style="fill:#ff8080;fill-opacity:1;stroke:none" />
            <path
               sodipodi:type="arc"
               style="opacity:0.2469136;fill:#ffffff;fill-opacity:1;stroke:none"
               id="path5805"
               sodipodi:cx="355.65262"
               sodipodi:cy="310.39496"
               sodipodi:rx="2.80633"
               sodipodi:ry="1.3921164"
               d="m 358.45895,310.39496 c 0,0.76884 -1.25644,1.39211 -2.80633,1.39211 -1.54989,0 -2.80633,-0.62327 -2.80633,-1.39211 0,-0.76885 1.25644,-1.39212 2.80633,-1.39212 1.54989,0 2.80633,0.62327 2.80633,1.39212 z"
               transform="matrix(1.0311259,0.07067532,-0.11329896,0.69805135,36.732699,376.081)" />
            <path
               sodipodi:nodetypes="cssccssc"
               transform="translate(0,308.2677)"
               inkscape:connector-curvature="0"
               id="path5807"
               d="m 366.09353,331.84044 c -0.86975,-0.35759 -1.58411,-1.32568 -1.79369,-2.4308 -0.10598,-0.55884 -0.0579,-1.51627 0.36941,-7.3589 l 0.42327,-5.7872 c 0.0371,-2.07854 4.14731,-2.33508 5.56335,-1.43851 0.0336,0.0336 -1.09572,14.18518 -1.1582,14.51307 -0.37218,1.95317 -1.93876,3.10465 -3.40414,2.50216 z"
               style="opacity:0.62551437;fill:#ff8080;fill-opacity:1;stroke:none" />
            <path
               sodipodi:nodetypes="ccscccccscc"
               transform="translate(0,308.2677)"
               inkscape:connector-curvature="0"
               id="path5810"
               d="m 366.53643,331.94653 c -0.77842,-0.13013 -1.61893,-0.89219 -1.99016,-1.80438 -0.36568,-0.89859 -0.36289,-1.06102 0.13692,-7.98086 0.36284,-5.02348 0.3274,-5.64836 0.4289,-6.09236 1.0225,1.57763 4.06054,-0.22525 5.49909,-0.75517 -0.0774,0.91944 -0.15043,1.90711 -0.21013,2.69328 -0.21432,2.82337 -0.70663,8.91849 -0.83209,10.30185 -0.095,1.04771 -0.11769,1.18814 -0.25786,1.59756 -0.19282,0.56316 -0.37488,0.87161 -0.74829,1.26777 -0.5864,0.62212 -1.29917,0.89382 -2.02606,0.77231 z"
               style="opacity:0.62551437;fill:#782167;fill-opacity:1;stroke:none" />
            <path
               sodipodi:nodetypes="cccccccscc"
               transform="translate(0,308.2677)"
               inkscape:connector-curvature="0"
               id="path5812"
               d="m 366.42428,331.89318 c -0.73348,-0.1781 -1.49893,-0.91857 -1.86747,-1.80651 -0.25299,-0.72484 0.0894,-1.199 0.64201,-1.26281 1.89942,0.12692 1.41002,-0.79319 2.10859,-0.46843 0.71747,0.2059 1.41615,-0.68007 1.78252,-0.96841 0.48794,0.0282 0.58309,-0.4636 0.56474,-0.35113 -0.0111,0.0683 -0.0418,0.40266 -0.0682,0.74296 -0.14488,1.86965 -0.28402,2.39815 -0.81861,3.10931 -0.61941,0.82399 -1.51222,1.20687 -2.34354,1.00502 z"
               style="opacity:0.62551437;fill:#782167;fill-opacity:1;stroke:none" />
            <path
               sodipodi:nodetypes="cccc"
               inkscape:connector-curvature="0"
               id="path5814"
               d="m 368.6457,622.88321 c -1.61922,-0.0645 -2.72659,0.44012 -3.0273,0.86178 -0.71286,1.0259 0.51864,1.34499 0.64217,0.24307 0.40582,-1.16561 1.57291,-1.01011 2.38513,-1.10485 z"
               style="fill:#aa507c;fill-opacity:1;stroke:#000000;stroke-width:0;stroke-linecap:butt;stroke-linejoin:miter;stroke-miterlimit:4;stroke-opacity:1;stroke-dasharray:none" />
            <path
               transform="matrix(0.64528581,0.42931483,-1.5004569,0.9982684,603.20353,151.36588)"
               d="m 367.23148,315.28946 c 0,0.10373 -0.13851,0.18782 -0.30936,0.18782 -0.17086,0 -0.30936,-0.0841 -0.30936,-0.18782 0,-0.10373 0.1385,-0.18783 0.30936,-0.18783 0.17085,0 0.30936,0.0841 0.30936,0.18783 z"
               sodipodi:ry="0.18782523"
               sodipodi:rx="0.30935922"
               sodipodi:cy="315.28946"
               sodipodi:cx="366.92212"
               id="path5817"
               style="fill:#aa507c;fill-opacity:1;stroke:none"
               sodipodi:type="arc" />
            <path
               transform="matrix(0.99813523,-0.04949022,-0.05344577,0.6234944,17.093232,451.26908)"
               d="m 369.94942,320.97946 c 0,4.44222 -0.0791,8.04334 -0.17678,8.04334 -0.0976,0 -0.17677,-3.60112 -0.17677,-8.04334 0,-4.44221 0.0791,-8.04334 0.17677,-8.04334 0.0976,0 0.17678,3.60113 0.17678,8.04334 z"
               sodipodi:ry="8.0433397"
               sodipodi:rx="0.17677669"
               sodipodi:cy="320.97946"
               sodipodi:cx="369.77264"
               id="path5819"
               style="opacity:0.61728396;fill:#ffffff;fill-opacity:1;stroke:none;filter:url(#filter5687)"
               sodipodi:type="arc" />
            <path
               sodipodi:type="arc"
               style="opacity:0.61728396;fill:#ffffff;fill-opacity:1;stroke:none;filter:url(#filter5723)"
               id="path5821"
               sodipodi:cx="369.77264"
               sodipodi:cy="320.97946"
               sodipodi:rx="0.17677669"
               sodipodi:ry="8.0433397"
               d="m 369.94942,320.97946 c 0,4.44222 -0.0791,8.04334 -0.17678,8.04334 -0.0976,0 -0.17677,-3.60112 -0.17677,-8.04334 0,-4.44221 0.0791,-8.04334 0.17677,-8.04334 0.0976,0 0.17678,3.60113 0.17678,8.04334 z"
               transform="matrix(0.93397147,-0.16679161,-0.01330994,0.184812,27.003722,638.4266)" />
            <path
               sodipodi:type="arc"
               style="opacity:0.78600823;fill:#ffffff;fill-opacity:1;stroke:none;filter:url(#filter5687)"
               id="path5823"
               sodipodi:cx="369.77264"
               sodipodi:cy="320.97946"
               sodipodi:rx="0.17677669"
               sodipodi:ry="8.0433397"
               d="m 369.94942,320.97946 c 0,4.44222 -0.0791,8.04334 -0.17678,8.04334 -0.0976,0 -0.17677,-3.60112 -0.17677,-8.04334 0,-4.44221 0.0791,-8.04334 0.17677,-8.04334 0.0976,0 0.17678,3.60113 0.17678,8.04334 z"
               transform="matrix(0.99813523,-0.04949022,-0.05344577,0.6234944,13.911251,442.87219)" />
            <path
               style="opacity:0.909465;fill:#ffffff;fill-opacity:1;stroke:#000000;stroke-width:0;stroke-linecap:butt;stroke-linejoin:miter;stroke-miterlimit:4;stroke-opacity:1;stroke-dasharray:none;filter:url(#filter5766)"
               d="m 369.40977,617.57016 c -1.47628,-0.32055 -2.69211,-0.29587 -3.12925,-0.16266 -1.04616,0.32749 -0.0249,0.6913 0.50374,0.2238 0.81414,-0.44493 1.83723,-0.16544 2.62551,-0.0611 z"
               id="path5825"
               inkscape:connector-curvature="0"
               sodipodi:nodetypes="cccc" />
          </g>
          <path
             sodipodi:nodetypes="ccccc"
             inkscape:connector-curvature="0"
             id="path5827"
             d="m 224.8493,663.07667 c -1.52527,1.26061 -1.13015,2.8095 2.1519,2.50909 1.30076,-0.22316 3.39293,-1.62709 4.43155,-4.16725 -1.29827,-4.05313 1.29143,-6.90106 -2.21831,-3.18092 -3.76486,1.42764 -3.79528,2.05189 -4.36514,4.83908 z"
             style="fill:#ffa0a0;fill-opacity:1;stroke:none" />
          <path
             sodipodi:nodetypes="ccc"
             inkscape:connector-curvature="0"
             id="path5829"
             d="m 230.35267,659.3073 c -8.17558,9.14527 8.92452,14.02169 14.03452,6.18107 2.12349,-9.20228 -11.96613,0.84384 -14.03452,-6.18107 z"
             style="fill:#d0748c;fill-opacity:1;stroke:none" />
          <path
             style="fill:#ffd5d5;fill-opacity:1;stroke:none"
             d="m 243.05992,661.17574 c 5.69448,1.39311 -2.27281,7.87783 -6.64124,8.3007 -3.8871,0.37631 -6.9712,-2.03869 -7.7466,-3.57314 -0.92276,-1.82602 0.30814,-8.96577 2.40116,-4.8595 1.61565,3.16968 10.6936,-0.18441 11.98668,0.1319 z"
             id="path5831"
             inkscape:connector-curvature="0"
             sodipodi:nodetypes="sssss" />
          <path
             sodipodi:type="arc"
             style="opacity:0.909465;fill:#ffffff;fill-opacity:1;stroke:none"
             id="path5833"
             sodipodi:cx="352.29688"
             sodipodi:cy="316.70386"
             sodipodi:rx="0.171875"
             sodipodi:ry="0.453125"
             d="m 352.46875,316.70386 c 0,0.25025 -0.077,0.45312 -0.17188,0.45312 -0.0949,0 -0.17187,-0.20287 -0.17187,-0.45312 0,-0.25026 0.077,-0.45313 0.17187,-0.45313 0.0949,0 0.17188,0.20287 0.17188,0.45313 z"
             transform="matrix(1.4185517,-1.1552599,1.1552599,1.4185517,-634.60339,619.6779)" />
          <path
             style="fill:#aa507c;fill-opacity:0.543379;stroke:none"
             d="m 226.02001,665.58978 c 0.50859,-2.72834 1.75591,-3.44759 3.23794,-5.51389 0.0531,-0.0128 0.0516,-0.009 -0.0432,0.11672 -0.29493,0.38965 -0.58949,1.2666 -0.72893,2.17021 -0.16337,1.059 -0.17105,2.17956 -0.0198,2.91561 0.0218,0.10556 0.0441,0.21476 0.0498,0.24256 0.0185,0.0897 -0.0423,-0.0512 -0.11306,-0.26278 -0.0353,-0.10556 -0.0675,-0.19559 -0.0712,-0.19994 -0.004,-0.004 -0.0185,0.002 -0.0326,0.0128 -0.0543,0.0448 -0.5198,0.26577 -0.7078,0.33598 -0.39143,0.14618 -0.55672,0.17472 -1.09163,0.18824 -0.28075,0.007 -0.47985,0.005 -0.47956,-0.005 l 0,0 z"
             id="path5835"
             inkscape:connector-curvature="0"
             sodipodi:nodetypes="cccccccccccccc" />
          <path
             style="fill:#d1748c;fill-opacity:1;stroke:none"
             d="m 226.00694,659.14727 c -0.29871,-0.0765 -1.71017,-0.39381 -3.13658,-0.70527 -1.42643,-0.31147 -2.89285,-0.64668 -3.25872,-0.7449 -0.36589,-0.0982 -0.72313,-0.19167 -0.79388,-0.20766 -0.0708,-0.0165 -0.12861,-0.0626 -0.12861,-0.10373 0,-0.12697 0.22653,-1.0466 0.45962,-1.86607 0.19573,-0.68809 1.03679,-2.96101 0.99028,-2.88803 -1.7279,2.71147 9.11871,5.90664 9.7672,5.12233 0.0282,0.0242 -2.8638,1.34655 -3.32756,1.52147 -0.0165,0.005 -0.27298,-0.0518 -0.57171,-0.12825 z"
             id="path5837"
             inkscape:connector-curvature="0"
             sodipodi:nodetypes="csccscscccc" />
          <path
             style="fill:#aa507c;fill-opacity:0.54794521;stroke:none"
             d="m 245.01799,662.6864 c -0.0937,-0.60808 -0.57059,-1.05761 -1.46426,-1.37998 -0.53353,-0.19246 -0.95006,-0.19394 -1.92187,-0.007 -0.80605,0.15514 -0.96749,0.1727 -0.839,0.0913 0.0594,-0.0377 0.14489,-0.88994 0.35636,-3.558 0.15294,-1.92966 0.27864,-3.58501 0.27917,-3.67857 8.6e-4,-0.1533 0.0399,-0.1169 0.3969,0.37162 0.21776,0.29793 0.54866,0.7861 0.73532,1.08482 0.46402,0.74261 1.49146,2.79495 1.81743,3.63032 0.45682,1.17072 0.74437,2.55604 0.70019,3.37306 l -0.0187,0.34302 -0.0417,-0.2708 0,0 z"
             id="path5839"
             inkscape:connector-curvature="0" />
          <path
             sodipodi:nodetypes="ccccc"
             inkscape:connector-curvature="0"
             id="path5841"
             d="m 232.65893,662.56144 c -0.51463,-0.20158 -0.61101,0.0655 -0.13227,0.32845 2.39192,1.44419 10.11324,1.14732 9.86189,-0.86759 -3.67332,0.23428 -6.7003,1.64598 -9.72968,0.53914 z"
             style="fill:#ffffff;fill-opacity:1;stroke:none" />
        </g>
        <g
           inkscape:export-ydpi="72"
           inkscape:export-xdpi="72"
           inkscape:export-filename="/home/aank/data.desain/greenbox/maskot_bg/g3581.png"
           id="g5843"
           transform="matrix(1.8487078,0,0,1.8487078,-1005.6573,-26.426702)">
          <path
             sodipodi:nodetypes="ccccscc"
             inkscape:connector-curvature="0"
             id="path5845"
             d="m 470.65683,583.60429 c 0.88429,-4.50197 4.30952,-10.34365 5.35622,-11.33143 4.19667,1.49751 11.42351,6.6562 13.37893,11.12338 0.59754,1.03568 1.95579,4.04134 0.64799,6.3443 -1.96329,-2.00559 -7.16096,-7.37067 -10.22583,-5.73465 -0.8975,0.47909 -2.58883,0.55635 -2.78358,1.13257 -0.91334,-0.38787 -5.20156,-1.10646 -6.37373,-1.53417 z"
             style="fill:#b380ff;fill-opacity:1;stroke:none" />
          <path
             style="fill:#b380ff;fill-opacity:1;stroke:none"
             d="m 475.3535,587.84618 c -1.15105,0.95254 -0.85199,2.12183 1.62596,1.89346 0.98203,-0.16911 2.56105,-1.23013 3.34405,-3.14855 -0.98217,-3.05968 0.97183,-5.21122 -1.67642,-2.40069 -2.84196,1.07971 -2.86464,1.55106 -3.29359,3.65578 z"
             id="path5848"
             inkscape:connector-curvature="0"
             sodipodi:nodetypes="ccccc" />
          <path
             style="fill:#8d5fd3;fill-opacity:1;stroke:none"
             d="m 479.50701,584.99754 c -6.16862,6.90895 6.74502,10.58279 10.5996,4.66036 1.59899,-6.94913 -9.03456,0.64279 -10.5996,-4.66036 z"
             id="path5850"
             inkscape:connector-curvature="0"
             sodipodi:nodetypes="ccc" />
          <path
             sodipodi:nodetypes="sssss"
             inkscape:connector-curvature="0"
             id="path5852"
             d="m 489.10243,586.4023 c 4.30024,1.04917 -1.71236,5.94919 -5.01051,6.27053 -2.93476,0.28597 -5.26453,-1.53602 -5.85072,-2.69423 -0.69758,-1.37829 0.22843,-6.76969 1.81069,-3.67026 1.22138,2.39248 8.07405,-0.14428 9.05054,0.0939 z"
             style="fill:#ccaaff;fill-opacity:1;stroke:none" />
          <path
             sodipodi:nodetypes="cccccccccccccc"
             inkscape:connector-curvature="0"
             id="path5854"
             d="m 476.23862,589.74313 c 0.38272,-2.06025 1.32417,-2.60391 2.44219,-4.16475 0.0401,-0.01 0.0389,-0.007 -0.0325,0.0881 -0.2225,0.29434 -0.44449,0.95661 -0.54935,1.63895 -0.12285,0.79966 -0.12812,1.64574 -0.0136,2.20142 0.0165,0.0797 0.0334,0.16211 0.0377,0.18311 0.014,0.0678 -0.0322,-0.0385 -0.0855,-0.19837 -0.0267,-0.0797 -0.051,-0.14767 -0.0539,-0.15089 -0.003,-0.003 -0.0139,0.002 -0.0246,0.01 -0.0412,0.0336 -0.39235,0.20091 -0.53427,0.25402 -0.29547,0.11055 -0.42026,0.13218 -0.82413,0.14264 -0.21198,0.005 -0.36231,0.004 -0.3621,-0.004 l 0,0 z"
             style="fill:#8d5fd3;fill-opacity:0.543379;stroke:none" />
          <path
             sodipodi:nodetypes="csccscscccc"
             inkscape:connector-curvature="0"
             id="path5856"
             d="m 476.22571,584.87876 c -0.22557,-0.0576 -1.29143,-0.29653 -2.36858,-0.53102 -1.07717,-0.2345 -2.18454,-0.48692 -2.46084,-0.5609 -0.2763,-0.074 -0.54608,-0.14438 -0.59951,-0.15641 -0.0534,-0.0125 -0.0971,-0.0472 -0.0968,-0.0786 -1.2e-4,-0.0959 0.17055,-0.79034 0.34615,-1.40918 0.14747,-0.51964 0.78143,-2.23619 0.74634,-2.18107 -1.30335,2.0481 6.88783,4.45548 7.37709,3.86299 0.0211,0.0184 -2.16166,1.01805 -2.51174,1.15034 -0.0121,0.004 -0.20613,-0.039 -0.43172,-0.0966 z"
             style="fill:#8d5fd3;fill-opacity:1;stroke:none" />
          <g
             id="g5858">
            <path
               sodipodi:type="arc"
               style="opacity:0.909465;fill:#ffffff;fill-opacity:1;stroke:none"
               id="path5860"
               sodipodi:cx="352.29688"
               sodipodi:cy="316.70386"
               sodipodi:rx="0.171875"
               sodipodi:ry="0.453125"
               d="m 352.46875,316.70386 c 0,0.25025 -0.077,0.45312 -0.17188,0.45312 -0.0949,0 -0.17187,-0.20287 -0.17187,-0.45312 0,-0.25026 0.077,-0.45313 0.17187,-0.45313 0.0949,0 0.17188,0.20287 0.17188,0.45313 z"
               transform="matrix(1.0705241,-0.87294207,0.87294207,1.0705241,-173.59186,555.48385)" />
            <g
               id="g5862">
              <path
                 inkscape:connector-curvature="0"
                 id="path5864"
                 d="m 490.58157,587.54199 c -0.071,-0.45908 -0.43132,-0.79827 -1.10606,-1.04144 -0.40293,-0.14506 -0.71743,-0.14598 -1.4511,-0.004 -0.60854,0.11751 -0.73042,0.13085 -0.63344,0.0693 0.0449,-0.0285 0.10898,-0.67201 0.26738,-2.68661 0.11457,-1.45705 0.2087,-2.70698 0.20906,-2.77762 6e-4,-0.11576 0.0301,-0.0882 0.29985,0.28041 0.16459,0.2248 0.41463,0.59328 0.55571,0.81874 0.35071,0.56048 1.12744,2.1096 1.37396,2.74019 0.34547,0.88374 0.56324,1.92958 0.53026,2.54648 l -0.014,0.25901 -0.0316,-0.20445 0,0 z"
                 style="fill:#aa507c;fill-opacity:0.54794521;stroke:none" />
              <path
                 style="fill:#ffffff;fill-opacity:1;stroke:none"
                 d="m 481.24987,587.45347 c -0.38866,-0.15195 -0.46131,0.0498 -0.0997,0.24804 1.80668,1.08929 7.63648,0.8615 7.44575,-0.65973 -2.7734,0.17863 -5.05824,1.24596 -7.34609,0.41167 z"
                 id="path5866"
                 inkscape:connector-curvature="0"
                 sodipodi:nodetypes="ccccc" />
              <path
                 sodipodi:type="arc"
                 style="fill:#ffffff;fill-opacity:1;stroke:none"
                 id="path5868"
                 sodipodi:cx="492.03125"
                 sodipodi:cy="277.25073"
                 sodipodi:rx="7.65625"
                 sodipodi:ry="2.96875"
                 d="m 499.6875,277.25073 c 0,1.6396 -3.42782,2.96875 -7.65625,2.96875 -4.22843,0 -7.65625,-1.32915 -7.65625,-2.96875 0,-1.63959 3.42782,-2.96875 7.65625,-2.96875 4.22843,0 7.65625,1.32916 7.65625,2.96875 z"
                 transform="matrix(1.0767658,0,0,0.56483309,-41.396154,426.6993)" />
              <path
                 transform="translate(0,308.2677)"
                 inkscape:connector-curvature="0"
                 id="path5870"
                 d="m 487.79702,289.7294 c -1.01698,-0.0601 -1.97045,-0.3358 -2.76045,-0.79827 -0.17188,-0.10062 -0.28421,-0.20669 -0.57547,-0.54339 -2.75255,-3.18198 -3.94843,-5.65504 -4.36546,-9.02773 -0.11941,-0.96572 -0.22466,-3.10444 -0.20011,-4.06648 0.0101,-0.39511 0.0165,-0.43377 0.089,-0.53546 0.26288,-0.36879 0.94568,-0.70528 1.98239,-0.97693 4.03482,-1.05728 11.52043,-0.82528 14.12899,0.4379 0.42093,0.20383 0.66847,0.39755 0.76634,0.59973 l 0.0717,0.14808 -0.0378,0.89189 c -0.0697,1.64471 -0.23248,3.10514 -0.49291,4.42314 -0.7036,3.56087 -2.15473,6.38291 -4.26244,8.28928 -0.40336,0.36482 -0.67434,0.52179 -1.26563,0.73314 -0.92815,0.33175 -2.04573,0.48609 -3.07812,0.4251 z m 2.34698,-13.08829 c 3.00381,-0.14795 5.21415,-0.57908 6.03417,-1.17697 0.3677,-0.26809 0.3677,-0.59642 0,-0.86451 -0.99928,-0.72859 -4.08505,-1.20837 -7.77178,-1.20837 -3.68673,0 -6.7725,0.47978 -7.77178,1.20837 -0.3677,0.26809 -0.3677,0.59642 0,0.86451 0.80469,0.58671 3.039,1.0292 5.92803,1.17402 0.74133,0.0372 2.8516,0.0389 3.58136,0.003 l 0,0 z"
                 style="fill:#de87aa;fill-opacity:1;stroke:none" />
              <path
                 sodipodi:nodetypes="cccc"
                 inkscape:connector-curvature="0"
                 id="path5872"
                 d="m 481.73318,587.83293 c 1.08005,0.99942 1.01272,1.87613 0.93803,3.21326 -0.0523,0.8582 0.26856,1.7164 0.57879,2.57461 -1.37661,-1.3949 -3.74071,-7.59676 -1.51682,-5.78787 z"
                 style="fill:#f4d7e3;stroke:none" />
              <path
                 transform="translate(-0.65625,307.0177)"
                 d="m 483,279.11011 c 0,0.61269 -0.38476,1.10937 -0.85938,1.10937 -0.47461,0 -0.85937,-0.49668 -0.85937,-1.10937 0,-0.61269 0.38476,-1.10938 0.85937,-1.10938 0.47462,0 0.85938,0.49669 0.85938,1.10938 z"
                 sodipodi:ry="1.109375"
                 sodipodi:rx="0.859375"
                 sodipodi:cy="279.11011"
                 sodipodi:cx="482.14062"
                 id="path5874"
                 style="fill:#f4d7e3;fill-opacity:1;stroke:none"
                 sodipodi:type="arc" />
              <path
                 transform="translate(0,308.2677)"
                 sodipodi:nodetypes="ccccc"
                 inkscape:connector-curvature="0"
                 id="path5876"
                 d="m 489.13665,289.60201 c 5.00048,-2.28403 6.67187,-8.95446 7.72738,-13.28472 -0.18915,7.42378 -3.70786,12.13449 -5.34457,12.72689 -0.34836,0.20125 -1.16235,0.44567 -1.80877,0.58182 -0.40624,0.0856 -0.77308,0.0472 -0.57404,-0.024 z"
                 style="opacity:0.37037036;fill:#d35f8d;fill-opacity:1;stroke:none" />
              <path
                 sodipodi:nodetypes="ccccccc"
                 inkscape:connector-curvature="0"
                 id="path5878"
                 d="m 489.94268,581.69552 -0.58216,-0.0349 c -2.75379,-0.0489 -5.87796,0.0564 -8.15189,0.87699 -1.68333,0.67447 -0.99683,1.4854 1.86816,2.01034 0.33851,0.062 0.77506,0.12304 0.97011,0.13561 l 0.35464,0.0229 c 5.52231,0.21002 3.06294,-2.44513 5.54114,-3.01094 z"
                 style="opacity:0.37037036;fill:#d35f8d;fill-opacity:1;stroke:none" />
              <path
                 transform="matrix(1.3342939,0,0,1.6666668,-163.7038,123.44951)"
                 sodipodi:nodetypes="sssss"
                 inkscape:connector-curvature="0"
                 id="path5880"
                 d="m 494.12888,276.34135 c -0.43328,0.24057 -2.45088,0.55782 -5.4453,0.55782 -2.99441,0 -4.86855,-0.33834 -5.44236,-0.57891 -0.40105,-0.16813 2.43624,-0.75703 5.43065,-0.75703 2.99442,0 5.82902,0.57158 5.45701,0.77812 z"
                 style="opacity:0.65843626;fill:#2b1100;fill-opacity:1;stroke:none" />
              <path
                 style="opacity:0.65843626;fill:#2b1100;fill-opacity:1;stroke:none"
                 d="m 494.94152,584.00159 c -0.52499,0.36411 -2.96967,0.84426 -6.59793,0.84426 -3.62825,0 -5.89909,-0.51207 -6.59436,-0.87618 -0.48595,-0.25446 2.95192,-1.14576 6.58017,-1.14576 3.62826,0 7.06288,0.86508 6.61212,1.17768 z"
                 id="path5882"
                 inkscape:connector-curvature="0"
                 sodipodi:nodetypes="sssss" />
              <path
                 style="opacity:0.37037036;fill:#736257;fill-opacity:1;stroke:none"
                 d="m 487.36392,582.98388 c -1.73317,-0.0693 -3.93443,0.31959 -5.29397,0.65713 -0.91115,0.24785 -0.21925,0.53023 1.33151,0.72313 0.18323,0.0228 0.41952,0.0452 0.5251,0.0498 l 0.19196,0.008 c 2.76481,0.0388 0.38376,-0.85446 3.2454,-1.43806 z"
                 id="path5884"
                 inkscape:connector-curvature="0"
                 sodipodi:nodetypes="cccccc" />
              <path
                 transform="matrix(1.0206266,-0.28814836,0.28074329,1.5740463,-87.780744,290.67282)"
                 d="m 488.62184,275.3103 c 0,0.0946 -0.44025,0.17126 -0.98332,0.17126 -0.54307,0 -0.98332,-0.0767 -0.98332,-0.17126 0,-0.0946 0.44025,-0.17125 0.98332,-0.17125 0.54307,0 0.98332,0.0767 0.98332,0.17125 z"
                 sodipodi:ry="0.17125243"
                 sodipodi:rx="0.98332036"
                 sodipodi:cy="275.3103"
                 sodipodi:cx="487.63852"
                 id="path5886"
                 style="opacity:0.65843626;fill:#543c30;fill-opacity:1;stroke:none"
                 sodipodi:type="arc" />
            </g>
            <path
               style="fill:#6c5353;fill-opacity:1;stroke:none;filter:url(#filter6846)"
               d="m 491.4375,275.78198 c 0.82714,-0.99512 1.89275,-2.4446 1.35156,-3.40625 -1.30062,-1.80918 -0.27929,-2.03383 0.21089,-3.65625 -1.00053,1.89121 -1.83923,2.0071 -1.5625,3.875 0.2379,1.23732 1.0572,0.93282 0,3.1875 z"
               id="path5888"
               inkscape:connector-curvature="0"
               transform="translate(0,308.2677)"
               sodipodi:nodetypes="cccccc" />
            <path
               sodipodi:nodetypes="cccccc"
               inkscape:connector-curvature="0"
               id="path5890"
               d="m 489.5625,581.61218 c 0.82714,-0.99512 1.89275,-2.4446 1.35156,-3.40625 -1.30062,-1.80918 -0.27929,-2.03383 0.21089,-3.65625 -1.00053,1.89121 -1.83923,2.0071 -1.5625,3.875 0.2379,1.23732 1.0572,0.93282 0,3.1875 z"
               style="fill:#6c5353;fill-opacity:1;stroke:none;filter:url(#filter6850)"
               transform="matrix(1.1718717,0,0,1.1442601,-84.141952,-84.090943)" />
            <path
               sodipodi:nodetypes="cccccc"
               transform="matrix(-1,0,0,1,984.50893,301.3927)"
               inkscape:connector-curvature="0"
               id="path5892"
               d="m 491.4375,275.78198 c 0.82714,-0.99512 1.89275,-2.4446 1.35156,-3.40625 -1.30062,-1.80918 -0.27929,-2.03383 0.21089,-3.65625 -1.00053,1.89121 -1.83923,2.0071 -1.5625,3.875 0.2379,1.23732 1.0572,0.93282 0,3.1875 z"
               style="fill:#6c5353;fill-opacity:1;stroke:none;filter:url(#filter6846)" />
          </g>
        </g>
        <path
           inkscape:export-ydpi="72"
           inkscape:export-xdpi="72"
           inkscape:export-filename="/home/aank/data.desain/greenbox/maskot_bg/g3581.png"
           style="opacity:0.65843626;fill:#2c6f00;fill-opacity:1;stroke:none"
           d="m -180.79985,1062.1742 c -1.11291,-0.089 -3.16058,-0.5137 -4.35372,-0.9041 -6.35847,-2.0804 -11.69025,-7.3695 -14.46726,-14.3514 -0.99887,-2.5114 -1.71613,-5.4636 -1.97894,-8.1451 -0.2509,-2.5592 0.0423,-8.379 0.44233,-8.7789 0.14092,19.3432 17.19342,33.8773 30.69878,30.1808 -1.73525,0.8417 -2.66076,1.1709 -4.33749,1.5428 -2.12515,0.4714 -4.00954,0.6145 -6.0037,0.4559 z"
           id="path5894"
           inkscape:connector-curvature="0"
           sodipodi:nodetypes="cssscccc" />
        <path
           inkscape:export-ydpi="72"
           inkscape:export-xdpi="72"
           inkscape:export-filename="/home/aank/data.desain/greenbox/maskot_bg/g3581.png"
           sodipodi:type="arc"
           style="opacity:0.65843626;fill:#519424;fill-opacity:1;stroke:none"
           id="path5896"
           sodipodi:cx="438.11893"
           sodipodi:cy="264.10156"
           sodipodi:rx="1.4363106"
           sodipodi:ry="3.7123106"
           d="m 439.55524,264.10156 c 0,2.05026 -0.64306,3.71231 -1.43631,3.71231 -0.79326,0 -1.43631,-1.66205 -1.43631,-3.71231 0,-2.05025 0.64305,-3.71231 1.43631,-3.71231 0.79325,0 1.43631,1.66206 1.43631,3.71231 z"
           transform="matrix(2.3318598,-0.35625421,0.54319665,1.5293446,-1335.3773,770.70729)" />
        <path
           inkscape:export-ydpi="72"
           inkscape:export-xdpi="72"
           inkscape:export-filename="/home/aank/data.desain/greenbox/maskot_bg/g3581.png"
           style="opacity:0.16872427;fill:#e3f4d7;fill-opacity:1;stroke:none"
           d="m -170.0783,1011.7168 c -0.0544,-0.1943 0.0279,-0.173 0.62069,0.16 6.81597,3.8285 11.55983,11.3622 12.7,20.1688 0.25339,1.958 0.25394,5.6112 9.7e-4,7.5093 -0.70862,5.3162 -2.63973,10.0683 -5.7053,14.0397 -0.95972,1.2433 -2.90222,3.1979 -4.1714,4.1974 -0.95416,0.7514 -2.05643,1.5136 -1.91429,1.381 8.95095,-8.1484 9.78745,-39.1983 -1.53064,-47.4562 z"
           id="path5898"
           inkscape:connector-curvature="0"
           sodipodi:nodetypes="cssssscc" />
        <path
           inkscape:export-ydpi="72"
           inkscape:export-xdpi="72"
           inkscape:export-filename="/home/aank/data.desain/greenbox/maskot_bg/g3581.png"
           sodipodi:nodetypes="ccccccccccccccccccccccccc"
           inkscape:connector-curvature="0"
           style="fill:#002b00;fill-opacity:1;fill-rule:evenodd;stroke:none"
           d="m -180.25501,1049.4023 13.22993,-7.3292 4.8e-4,-0.1102 0.0752,-13.5759 -8.37671,-5.0086 -0.0284,5.141 5.14988,2.9851 -0.0332,4.7809 -6.27615,-3.6299 0.0713,-12.8997 3.6e-4,-0.082 -3.63598,-2.2932 -0.20337,-0.1285 -0.0138,2.6911 -0.0829,14.9657 -0.0321,7.2818 -3.74645,2.6289 0.0981,-17.7317 -6.9951,4.8226 -0.0138,4.1687 5.81564,-3.822 -0.0221,4.1399 -8.47901,5.5108 13.49616,7.4948 z"
           id="path5900" />
      </g>
    </g>
  </g>
</svg>
